<svg width="48" height="48" viewBox="0 0 48 48" fill="none" xmlns="http://www.w3.org/2000/svg">
<path d="M1.5 25.5H7.5" stroke="#6B6B6B" stroke-width="1.5" stroke-linecap="round" stroke-linejoin="round"/>
<path d="M7.5 7.5L12.486 12.486" stroke="#6B6B6B" stroke-width="1.5" stroke-linecap="round" stroke-linejoin="round"/>
<path d="M40.4997 7.5L35.5137 12.486" stroke="#6B6B6B" stroke-width="1.5" stroke-linecap="round" stroke-linejoin="round"/>
<path d="M6 45L11.451 39.549" stroke="#6B6B6B" stroke-width="1.5" stroke-linecap="round" stroke-linejoin="round"/>
<path d="M42.0004 45L36.5479 39.5475" stroke="#6B6B6B" stroke-width="1.5" stroke-linecap="round" stroke-linejoin="round"/>
<path d="M40.5 25.5H46.5" stroke="#6B6B6B" stroke-width="1.5" stroke-linecap="round" stroke-linejoin="round"/>
<path d="M18.6135 5.1135L15 1.5" stroke="#6B6B6B" stroke-width="1.5" stroke-linecap="round" stroke-linejoin="round"/>
<path d="M29.3867 5.1135L33.0002 1.5" stroke="#6B6B6B" stroke-width="1.5" stroke-linecap="round" stroke-linejoin="round"/>
<path d="M31.467 8.9985C36.828 12.2715 40.5 18.96 40.5 26.679C40.5 37.626 33.1125 46.5 24 46.5C14.8875 46.5 7.5 37.626 7.5 26.679C7.5 18.9825 11.151 12.312 16.485 9.027" stroke="#6B6B6B" stroke-width="1.5" stroke-linecap="round" stroke-linejoin="round"/>
<path d="M18 22.5C19.6569 22.5 21 21.1569 21 19.5C21 17.8431 19.6569 16.5 18 16.5C16.3431 16.5 15 17.8431 15 19.5C15 21.1569 16.3431 22.5 18 22.5Z" fill="url(#paint0_linear)" stroke="#6B6B6B" stroke-width="1.5" stroke-linecap="round" stroke-linejoin="round"/>
<path d="M30 22.5C31.6569 22.5 33 21.1569 33 19.5C33 17.8431 31.6569 16.5 30 16.5C28.3431 16.5 27 17.8431 27 19.5C27 21.1569 28.3431 22.5 30 22.5Z" fill="url(#paint1_linear)" stroke="#6B6B6B" stroke-width="1.5" stroke-linecap="round" stroke-linejoin="round"/>
<path d="M17.25 36C19.3211 36 21 34.3211 21 32.25C21 30.1789 19.3211 28.5 17.25 28.5C15.1789 28.5 13.5 30.1789 13.5 32.25C13.5 34.3211 15.1789 36 17.25 36Z" fill="url(#paint2_linear)" stroke="#6B6B6B" stroke-width="1.5" stroke-linecap="round" stroke-linejoin="round"/>
<path d="M30.75 36C32.8211 36 34.5 34.3211 34.5 32.25C34.5 30.1789 32.8211 28.5 30.75 28.5C28.6789 28.5 27 30.1789 27 32.25C27 34.3211 28.6789 36 30.75 36Z" fill="url(#paint3_linear)" stroke="#6B6B6B" stroke-width="1.5" stroke-linecap="round" stroke-linejoin="round"/>
<path d="M24.0004 3C20.1019 3 16.9414 5.742 16.4434 9.2745C16.4224 9.291 20.2849 12.024 24.0004 12.024C27.7159 12.024 31.5784 9.291 31.5574 9.276C31.0594 5.742 27.8989 3 24.0004 3Z" fill="url(#paint4_linear)" stroke="#6B6B6B" stroke-width="1.5" stroke-linecap="round" stroke-linejoin="round"/>
<defs>
<linearGradient id="paint0_linear" x1="18" y1="16.5" x2="18" y2="22.5" gradientUnits="userSpaceOnUse">
<stop stop-color="#EE7C48"/>
<stop offset="1" stop-color="#EDAA52"/>
</linearGradient>
<linearGradient id="paint1_linear" x1="30" y1="16.5" x2="30" y2="22.5" gradientUnits="userSpaceOnUse">
<stop stop-color="#EE7C48"/>
<stop offset="1" stop-color="#EDAA52"/>
</linearGradient>
<linearGradient id="paint2_linear" x1="17.25" y1="28.5" x2="17.25" y2="36" gradientUnits="userSpaceOnUse">
<stop stop-color="#EE7C48"/>
<stop offset="1" stop-color="#EDAA52"/>
</linearGradient>
<linearGradient id="paint3_linear" x1="30.75" y1="28.5" x2="30.75" y2="36" gradientUnits="userSpaceOnUse">
<stop stop-color="#EE7C48"/>
<stop offset="1" stop-color="#EDAA52"/>
</linearGradient>
<linearGradient id="paint4_linear" x1="24.0004" y1="3" x2="24.0004" y2="12.024" gradientUnits="userSpaceOnUse">
<stop stop-color="#EE7C48"/>
<stop offset="1" stop-color="#EDAA52"/>
</linearGradient>
</defs>
</svg>
