<svg width="48" height="48" viewBox="0 0 48 48" fill="none" xmlns="http://www.w3.org/2000/svg">
<path d="M16.0695 20.5785C15.348 19.0575 13.7955 18 12 18H6C3.5145 18 1.5 20.0145 1.5 22.5V30H4.5V40.5H13.5" stroke="#6B6B6B" stroke-width="1.5" stroke-linecap="round" stroke-linejoin="round"/>
<path d="M9 13.5C11.4853 13.5 13.5 11.4853 13.5 9C13.5 6.51472 11.4853 4.5 9 4.5C6.51472 4.5 4.5 6.51472 4.5 9C4.5 11.4853 6.51472 13.5 9 13.5Z" stroke="#6B6B6B" stroke-width="1.5" stroke-linecap="round" stroke-linejoin="round"/>
<path d="M31.9307 20.5785C32.6522 19.0575 34.2047 18 36.0002 18H42.0002C44.4857 18 46.5002 20.0145 46.5002 22.5V30H43.5002V40.5H34.5002" stroke="#6B6B6B" stroke-width="1.5" stroke-linecap="round" stroke-linejoin="round"/>
<path d="M39 13.5C41.4853 13.5 43.5 11.4853 43.5 9C43.5 6.51472 41.4853 4.5 39 4.5C36.5147 4.5 34.5 6.51472 34.5 9C34.5 11.4853 36.5147 13.5 39 13.5Z" stroke="#6B6B6B" stroke-width="1.5" stroke-linecap="round" stroke-linejoin="round"/>
<path d="M28.5 46.5H19.5V34.5H15V24C15 20.6865 17.6865 18 21 18H27C30.3135 18 33 20.6865 33 24V34.5H28.5V46.5Z" fill="url(#paint0_linear)" stroke="#6B6B6B" stroke-width="1.5" stroke-linecap="round" stroke-linejoin="round"/>
<path d="M24 13.5C27.3137 13.5 30 10.8137 30 7.5C30 4.18629 27.3137 1.5 24 1.5C20.6863 1.5 18 4.18629 18 7.5C18 10.8137 20.6863 13.5 24 13.5Z" stroke="#6B6B6B" stroke-width="1.5" stroke-linecap="round" stroke-linejoin="round"/>
<defs>
<linearGradient id="paint0_linear" x1="24" y1="18" x2="24" y2="46.5" gradientUnits="userSpaceOnUse">
<stop stop-color="#EE7C48"/>
<stop offset="1" stop-color="#EDAA52"/>
</linearGradient>
</defs>
</svg>
