<svg width="48" height="48" viewBox="0 0 48 48" fill="none" xmlns="http://www.w3.org/2000/svg">
<path d="M42 28.5V28.4715C39.4018 26.5265 36.2428 25.4768 32.9973 25.4797C29.7517 25.4827 26.5947 26.5383 24 28.488C21.4049 30.4371 18.2476 31.4918 15.002 31.494C11.7564 31.4962 8.59774 30.4456 6 28.5C6 38.25 14.3226 46.4403 24 46.5C33.75 46.5 42 38.25 42 28.5Z" fill="url(#paint0_linear)" stroke="#6B6B6B" stroke-width="1.5" stroke-linecap="round" stroke-linejoin="round"/>
<path d="M15 1.5H33" stroke="#6B6B6B" stroke-width="1.5" stroke-linecap="round" stroke-linejoin="round"/>
<path d="M18 24C19.6569 24 21 22.6569 21 21C21 19.3431 19.6569 18 18 18C16.3431 18 15 19.3431 15 21C15 22.6569 16.3431 24 18 24Z" fill="#6B6B6B"/>
<path d="M18 1.5V11.55C13.9968 12.9654 10.6227 15.7504 8.47425 19.4129C6.32579 23.0753 5.54124 27.3794 6.25926 31.5644C6.97729 35.7494 9.15166 39.5458 12.3981 42.2826C15.6445 45.0195 19.7539 46.5206 24 46.5206C28.2462 46.5206 32.3556 45.0195 35.602 42.2826C38.8484 39.5458 41.0228 35.7494 41.7408 31.5644C42.4588 27.3794 41.6743 23.0753 39.5258 19.4129C37.3774 15.7504 34.0033 12.9654 30 11.55V1.5" stroke="#6B6B6B" stroke-width="1.5" stroke-linecap="round" stroke-linejoin="round"/>
<defs>
<linearGradient id="paint0_linear" x1="24" y1="25.4797" x2="24" y2="46.5" gradientUnits="userSpaceOnUse">
<stop stop-color="#EE7C48"/>
<stop offset="1" stop-color="#EDAA52"/>
</linearGradient>
</defs>
</svg>
