<svg width="48" height="48" viewBox="0 0 48 48" fill="none" xmlns="http://www.w3.org/2000/svg">
<path d="M16.5 36.726C14.0918 35.117 12.265 32.7761 11.2892 30.0492C10.3135 27.3223 10.2406 24.3538 11.0813 21.5823C11.922 18.8108 13.6317 16.3831 15.958 14.6578C18.2843 12.9325 21.1038 12.001 24 12.001C26.8962 12.001 29.7157 12.9325 32.042 14.6578C34.3683 16.3831 36.078 18.8108 36.9187 21.5823C37.7594 24.3538 37.6865 27.3223 36.7108 30.0492C35.735 32.7761 33.9082 35.117 31.5 36.726" fill="url(#paint0_linear)"/>
<path d="M16.5 36.726C14.0918 35.117 12.265 32.7761 11.2892 30.0492C10.3135 27.3223 10.2406 24.3538 11.0813 21.5823C11.922 18.8108 13.6317 16.3831 15.958 14.6578C18.2843 12.9325 21.1038 12.001 24 12.001C26.8962 12.001 29.7157 12.9325 32.042 14.6578C34.3683 16.3831 36.078 18.8108 36.9187 21.5823C37.7594 24.3538 37.6865 27.3223 36.7108 30.0492C35.735 32.7761 33.9082 35.117 31.5 36.726" stroke="#6B6B6B" stroke-width="1.5" stroke-linecap="round" stroke-linejoin="round"/>
<path d="M24 30C26.4853 30 28.5 27.9853 28.5 25.5C28.5 23.0147 26.4853 21 24 21C21.5147 21 19.5 23.0147 19.5 25.5C19.5 27.9853 21.5147 30 24 30Z" fill="white" stroke="#6B6B6B" stroke-width="1.5" stroke-linecap="round" stroke-linejoin="round"/>
<path d="M12 44.5365C7.87363 41.9349 4.70453 38.0627 2.97016 33.5034C1.2358 28.9441 1.03014 23.9446 2.38416 19.2582C3.73818 14.5719 6.57854 10.4525 10.4773 7.5207C14.376 4.58895 19.122 3.00364 24 3.00364C28.8781 3.00364 33.624 4.58895 37.5227 7.5207C41.4215 10.4525 44.2618 14.5719 45.6159 19.2582C46.9699 23.9446 46.7642 28.9441 45.0298 33.5034C43.2955 38.0627 40.1264 41.9349 36 44.5365" stroke="#6B6B6B" stroke-width="1.5" stroke-linecap="round" stroke-linejoin="round"/>
<defs>
<linearGradient id="paint0_linear" x1="24" y1="12.001" x2="24" y2="36.726" gradientUnits="userSpaceOnUse">
<stop stop-color="#EE7C48"/>
<stop offset="1" stop-color="#EDAA52"/>
</linearGradient>
</defs>
</svg>
