<svg width="48" height="48" viewBox="0 0 48 48" fill="none" xmlns="http://www.w3.org/2000/svg">
<path d="M30.6836 5.58449L42.3686 17.2695" stroke="#6B6B6B" stroke-width="1.5" stroke-linecap="round" stroke-linejoin="round"/>
<path d="M25.95 8.05649C19.125 5.58449 12 7.06199 6 15L12.246 21.261" fill="url(#paint0_linear)"/>
<path d="M25.95 8.05649C19.125 5.58449 12 7.06199 6 15L12.246 21.261" stroke="#6B6B6B" stroke-width="1.5" stroke-linecap="round" stroke-linejoin="round"/>
<path d="M26.7393 35.754L33.0003 42C40.9383 36 42.4158 28.875 39.9438 22.05" fill="url(#paint1_linear)"/>
<path d="M26.7393 35.754L33.0003 42C40.9383 36 42.4158 28.875 39.9438 22.05" stroke="#6B6B6B" stroke-width="1.5" stroke-linecap="round" stroke-linejoin="round"/>
<path d="M21 39L9 27C9 27 18.7395 3.43799 45.984 2.01599C44.4435 29.1435 21 39 21 39Z" stroke="#6B6B6B" stroke-width="1.5" stroke-linecap="round" stroke-linejoin="round"/>
<path d="M27.75 24C29.8211 24 31.5 22.3211 31.5 20.25C31.5 18.1789 29.8211 16.5 27.75 16.5C25.6789 16.5 24 18.1789 24 20.25C24 22.3211 25.6789 24 27.75 24Z" fill="url(#paint2_linear)" stroke="#6B6B6B" stroke-width="1.5" stroke-linecap="round" stroke-linejoin="round"/>
<path d="M4.31831 37.3185C5.16702 36.4988 6.30373 36.0452 7.48362 36.0555C8.6635 36.0657 9.79216 36.539 10.6265 37.3733C11.4608 38.2077 11.9341 39.3363 11.9443 40.5162C11.9546 41.6961 11.501 42.8328 10.6813 43.6815C8.92481 45.4395 1.75781 46.242 1.75781 46.242C1.75781 46.242 2.56031 39.075 4.31831 37.3185Z" fill="url(#paint3_linear)" stroke="#6B6B6B" stroke-width="1.5" stroke-linecap="round" stroke-linejoin="round"/>
<defs>
<linearGradient id="paint0_linear" x1="15.975" y1="6.96341" x2="15.975" y2="21.261" gradientUnits="userSpaceOnUse">
<stop stop-color="#EE7C48"/>
<stop offset="1" stop-color="#EDAA52"/>
</linearGradient>
<linearGradient id="paint1_linear" x1="33.8881" y1="22.05" x2="33.8881" y2="42" gradientUnits="userSpaceOnUse">
<stop stop-color="#EE7C48"/>
<stop offset="1" stop-color="#EDAA52"/>
</linearGradient>
<linearGradient id="paint2_linear" x1="27.75" y1="16.5" x2="27.75" y2="24" gradientUnits="userSpaceOnUse">
<stop stop-color="#EE7C48"/>
<stop offset="1" stop-color="#EDAA52"/>
</linearGradient>
<linearGradient id="paint3_linear" x1="6.85116" y1="36.0553" x2="6.85116" y2="46.242" gradientUnits="userSpaceOnUse">
<stop stop-color="#EE7C48"/>
<stop offset="1" stop-color="#EDAA52"/>
</linearGradient>
</defs>
</svg>
