<svg width="48" height="48" viewBox="0 0 48 48" fill="none" xmlns="http://www.w3.org/2000/svg">
<path d="M19.5004 44.517C11.5144 42.774 5.2279 36.486 3.4834 28.5" stroke="#6B6B6B" stroke-width="1.5" stroke-linecap="round" stroke-linejoin="round"/>
<path d="M44.517 28.5C42.7725 36.486 36.486 42.774 28.5 44.517" stroke="#6B6B6B" stroke-width="1.5" stroke-linecap="round" stroke-linejoin="round"/>
<path d="M28.5 3.483C36.486 5.226 42.7725 11.514 44.517 19.5" stroke="#6B6B6B" stroke-width="1.5" stroke-linecap="round" stroke-linejoin="round"/>
<path d="M3.4834 19.5C5.2279 11.514 11.5144 5.226 19.5004 3.483" stroke="#6B6B6B" stroke-width="1.5" stroke-linecap="round" stroke-linejoin="round"/>
<path d="M19.5 14.511V1.5H28.5V14.511" fill="url(#paint0_linear)"/>
<path d="M19.5 14.511V1.5H28.5V14.511" stroke="#6B6B6B" stroke-width="1.5" stroke-linecap="round" stroke-linejoin="round"/>
<path d="M33.4893 19.5H46.5003V28.5H33.4893" fill="url(#paint1_linear)"/>
<path d="M33.4893 19.5H46.5003V28.5H33.4893" stroke="#6B6B6B" stroke-width="1.5" stroke-linecap="round" stroke-linejoin="round"/>
<path d="M28.5 33.489V46.5H19.5V33.489" fill="url(#paint2_linear)"/>
<path d="M28.5 33.489V46.5H19.5V33.489" stroke="#6B6B6B" stroke-width="1.5" stroke-linecap="round" stroke-linejoin="round"/>
<path d="M14.511 28.5H1.5V19.5H14.511" fill="url(#paint3_linear)"/>
<path d="M14.511 28.5H1.5V19.5H14.511" stroke="#6B6B6B" stroke-width="1.5" stroke-linecap="round" stroke-linejoin="round"/>
<path d="M24 34.5C29.799 34.5 34.5 29.799 34.5 24C34.5 18.201 29.799 13.5 24 13.5C18.201 13.5 13.5 18.201 13.5 24C13.5 29.799 18.201 34.5 24 34.5Z" stroke="#6B6B6B" stroke-width="1.5" stroke-linecap="round" stroke-linejoin="round"/>
<defs>
<linearGradient id="paint0_linear" x1="24" y1="1.5" x2="24" y2="14.511" gradientUnits="userSpaceOnUse">
<stop stop-color="#EE7C48"/>
<stop offset="1" stop-color="#EDAA52"/>
</linearGradient>
<linearGradient id="paint1_linear" x1="39.9948" y1="19.5" x2="39.9948" y2="28.5" gradientUnits="userSpaceOnUse">
<stop stop-color="#EE7C48"/>
<stop offset="1" stop-color="#EDAA52"/>
</linearGradient>
<linearGradient id="paint2_linear" x1="24" y1="33.489" x2="24" y2="46.5" gradientUnits="userSpaceOnUse">
<stop stop-color="#EE7C48"/>
<stop offset="1" stop-color="#EDAA52"/>
</linearGradient>
<linearGradient id="paint3_linear" x1="8.0055" y1="19.5" x2="8.0055" y2="28.5" gradientUnits="userSpaceOnUse">
<stop stop-color="#EE7C48"/>
<stop offset="1" stop-color="#EDAA52"/>
</linearGradient>
</defs>
</svg>
