<svg width="132" height="132" viewBox="0 0 132 132" fill="none" xmlns="http://www.w3.org/2000/svg">
<path d="M74.4064 0.537613C61.4588 -1.12508 48.309 1.08908 36.6198 6.90008C24.9306 12.7111 15.2272 21.8579 8.7366 33.1839C2.24601 44.5098 -0.740198 57.5061 0.155627 70.5293C1.05145 83.5524 5.78907 96.0174 13.7693 106.348C21.7496 116.679 32.6141 124.411 44.9889 128.566C57.3636 132.722 70.6928 133.115 83.2907 129.695C95.8887 126.275 107.19 119.196 115.764 109.353C124.339 99.5104 129.802 87.346 131.463 74.3982C133.69 57.0376 128.93 39.5033 118.23 25.6521C107.53 11.8008 91.7666 2.76697 74.4064 0.537613Z" fill="#FF6C37"/>
<path fill-rule="evenodd" clip-rule="evenodd" d="M65.3753 34.2191C65.7406 33.927 66.2595 33.927 66.6247 34.2191L88.6175 51.8134C88.622 51.8169 88.6265 51.8205 88.6309 51.8241L96.6247 58.2191C97.056 58.5641 97.1259 59.1934 96.7809 59.6247C96.4359 60.056 95.8066 60.1259 95.3753 59.7809L89 54.6806V92H96C96.5523 92 97 92.4477 97 93C97 93.5523 96.5523 94 96 94H36C35.4478 94 35 93.5523 35 93C35 92.4477 35.4478 92 36 92H43V54.6806L36.6247 59.7809C36.1935 60.1259 35.5642 60.056 35.2192 59.6247C34.8742 59.1934 34.9441 58.5641 35.3753 58.2191L43.3691 51.8241C43.3736 51.8205 43.378 51.8169 43.3825 51.8134L65.3753 34.2191ZM45 53.0806V92H55V75C55 68.9249 59.9249 64 66 64C72.0751 64 77 68.9249 77 75V92H87V53.0806L66 36.2806L45 53.0806ZM75 92V75C75 70.0294 70.9706 66 66 66C61.0295 66 57 70.0294 57 75V92H75Z" fill="white" stroke="white" stroke-width="2" stroke-linecap="round" stroke-linejoin="round"/>
</svg>
