<svg width="32" height="32" viewBox="0 0 32 32" fill="none" xmlns="http://www.w3.org/2000/svg">
<path d="M18.0379 0.13033C14.8991 -0.272747 11.7113 0.264019 8.87752 1.67275C6.04379 3.08148 3.69144 5.29889 2.11796 8.04457C0.544486 10.7903 -0.179442 13.9409 0.0377277 17.098C0.254897 20.2551 1.40341 23.277 3.33802 25.7813C5.27263 28.2857 7.90645 30.1601 10.9064 31.1676C13.9063 32.175 17.1376 32.2702 20.1917 31.4412C23.2457 30.6121 25.9854 28.896 28.0641 26.5099C30.1428 24.1237 31.4672 21.1748 31.8699 18.0359C32.4098 13.8273 31.2559 9.57657 28.6619 6.21869C26.068 2.8608 22.2465 0.670781 18.0379 0.13033V0.13033Z" fill="#FF6C37"/>
<path d="M11.5675 17.0112C11.5737 17.0239 11.5842 17.034 11.597 17.0398C11.6098 17.0457 11.6243 17.0469 11.6379 17.0432L14.1979 16.4912L13.1211 15.4L11.5867 16.9344C11.5746 16.9426 11.566 16.9549 11.5624 16.9691C11.5589 16.9833 11.5607 16.9983 11.5675 17.0112Z" fill="white"/>
<path d="M23.5547 6.01921C23.198 6.01957 22.8458 6.09995 22.5242 6.25442C22.2027 6.40889 21.9198 6.63352 21.6965 6.91178C21.4733 7.19003 21.3152 7.51482 21.2341 7.86223C21.153 8.20964 21.1508 8.57082 21.2277 8.91919C21.3046 9.26756 21.4587 9.59424 21.6786 9.87518C21.8985 10.1561 22.1786 10.3842 22.4983 10.5425C22.818 10.7009 23.1691 10.7855 23.5258 10.7902C23.8825 10.7949 24.2358 10.7195 24.5595 10.5696L22.9371 8.94721C22.9185 8.92863 22.9037 8.90656 22.8936 8.88226C22.8836 8.85796 22.8784 8.83191 22.8784 8.80561C22.8784 8.7793 22.8836 8.75325 22.8936 8.72895C22.9037 8.70465 22.9185 8.68258 22.9371 8.66401L25.0571 6.54561C24.6314 6.20329 24.101 6.01747 23.5547 6.01921Z" fill="white"/>
<path d="M25.3483 6.8208L23.3611 8.8L24.9195 10.3584C25.0343 10.2778 25.1414 10.1867 25.2395 10.0864C25.6666 9.6564 25.9152 9.08072 25.9354 8.47498C25.9556 7.86923 25.7458 7.27828 25.3483 6.8208Z" fill="white"/>
<path d="M21.3723 10.4736H21.3371C21.2958 10.4733 21.2545 10.477 21.2139 10.4848H21.1995C21.1549 10.4944 21.1111 10.5072 21.0683 10.5232L21.0347 10.5392C21.0025 10.5526 20.9715 10.5687 20.9419 10.5872L20.9067 10.6096C20.868 10.6363 20.8316 10.6663 20.7979 10.6992L14.9051 16.5936L15.6347 17.3232L21.8747 11.8464C21.91 11.8155 21.9421 11.7812 21.9707 11.744L21.9979 11.7088C22.0192 11.6776 22.0385 11.645 22.0555 11.6112C22.0651 11.592 22.0731 11.5728 22.0811 11.5536C22.0919 11.5281 22.1009 11.5019 22.1083 11.4752C22.1083 11.456 22.1195 11.4368 22.1243 11.4176C22.1322 11.378 22.1375 11.3379 22.1403 11.2976V11.2448C22.1403 11.216 22.1403 11.1872 22.1403 11.1584C22.1403 11.1296 22.1403 11.12 22.1323 11.1008C22.1027 10.9498 22.029 10.811 21.9205 10.7019C21.812 10.5928 21.6735 10.5184 21.5227 10.488H21.4923C21.4527 10.4804 21.4126 10.4756 21.3723 10.4736Z" fill="white"/>
<path d="M13.3963 15.1168L14.6059 16.32L20.5147 10.4112C20.707 10.2232 20.9575 10.1064 21.2251 10.08C20.1803 9.28 19.0411 9.4896 13.3963 15.1168Z" fill="white"/>
<path d="M22.2075 12.0768L22.1355 12.1472L15.8955 17.6224L16.9563 18.6816C19.5867 16.1936 21.9211 13.824 22.2075 12.0768Z" fill="white"/>
<path d="M6.64277 24.904C6.64601 24.9153 6.65267 24.9254 6.66182 24.9328C6.67098 24.9403 6.6822 24.9447 6.69397 24.9456L9.41396 25.1328L7.88916 23.608L6.65557 24.84C6.64757 24.8483 6.64212 24.8588 6.63985 24.8701C6.63759 24.8815 6.6386 24.8932 6.64277 24.904Z" fill="white"/>
<path d="M8.17394 23.3248L9.78193 24.9328C9.80102 24.9532 9.82656 24.9664 9.85424 24.9702C9.88192 24.974 9.91006 24.9681 9.93393 24.9536C9.95886 24.9412 9.97871 24.9206 9.9901 24.8952C10.0015 24.8698 10.0037 24.8412 9.99633 24.8144L9.72593 23.6592C9.70842 23.5843 9.71638 23.5057 9.74855 23.4359C9.78071 23.3661 9.83525 23.309 9.90353 23.2736C12.7227 21.8608 14.9963 20.4064 16.6651 18.9536L15.5451 17.8336L13.1451 18.3504L8.17394 23.3248Z" fill="white"/>
<path d="M15.2011 17.4944L14.5995 16.8928L13.7675 17.7232C13.7615 17.7304 13.7582 17.7395 13.7582 17.7488C13.7582 17.7582 13.7615 17.7672 13.7675 17.7744C13.7714 17.7829 13.7782 17.7898 13.7868 17.7936C13.7953 17.7974 13.8049 17.798 13.8139 17.7952L15.2011 17.4944Z" fill="white"/>
<path d="M25.4043 8.1104C25.3961 8.08522 25.3826 8.06209 25.3647 8.04256C25.3469 8.02303 25.325 8.00755 25.3006 7.99717C25.2763 7.98678 25.25 7.98173 25.2235 7.98236C25.197 7.98298 25.171 7.98927 25.1471 8.00079C25.1233 8.01231 25.1022 8.0288 25.0852 8.04915C25.0683 8.0695 25.0559 8.09324 25.0489 8.11878C25.0419 8.14432 25.0404 8.17107 25.0446 8.19722C25.0488 8.22337 25.0585 8.24832 25.0731 8.2704C25.1209 8.36662 25.1399 8.47462 25.1277 8.58137C25.1155 8.68812 25.0726 8.78905 25.0043 8.872C24.9819 8.8991 24.9676 8.93201 24.9632 8.96692C24.9587 9.00182 24.9643 9.03727 24.9792 9.06913C24.9941 9.10099 25.0178 9.12796 25.0475 9.14688C25.0771 9.1658 25.1116 9.1759 25.1467 9.176C25.1739 9.17571 25.2007 9.16955 25.2253 9.15795C25.2499 9.14636 25.2716 9.12959 25.2891 9.1088C25.4024 8.97111 25.4735 8.80367 25.4939 8.62658C25.5143 8.44949 25.4832 8.27026 25.4043 8.1104V8.1104Z" fill="#FF6C37"/>
</svg>
