<svg xmlns="http://www.w3.org/2000/svg" xmlns:xlink="http://www.w3.org/1999/xlink" viewBox="0 0 620 400"><defs><style>.cls-1{isolation:isolate;}.cls-2{opacity:0.7;fill:url(#linear-gradient);}.cls-3{fill:none;stroke-width:1.2px;}.cls-3,.cls-7{stroke:#3a3836;stroke-linecap:round;stroke-linejoin:round;}.cls-4{fill:#fd8753;}.cls-5{fill:#f39e7d;}.cls-6{fill:#686868;}.cls-7{fill:#d1dafa;stroke-width:1.2px;}.cls-8{fill:#ffde83;}.cls-9{fill:#262626;opacity:0.3;}.cls-11,.cls-9{mix-blend-mode:multiply;}.cls-10{fill:#3a3836;}.cls-11{fill:#e5e5e5;}</style><linearGradient id="linear-gradient" x1="328.35" y1="221.17" x2="357.97" y2="221.17" gradientUnits="userSpaceOnUse"><stop offset="0" stop-color="#ff7002"/><stop offset="0.3" stop-color="#fe7304"/><stop offset="0.5" stop-color="#fc7c0a"/><stop offset="0.68" stop-color="#f88b15"/><stop offset="0.84" stop-color="#f3a125"/><stop offset="0.98" stop-color="#ecbd39"/><stop offset="1" stop-color="#ebc03b"/></linearGradient></defs><g class="cls-1"><g id="Layer_1" data-name="Layer 1"><path class="cls-2" d="M334.74,226.7c-1.51-6.69,2.28-10.37,5.4-12.21l1.06-.25A10.69,10.69,0,0,1,353,219.5c.52,1,1,1.86,1.54,2.74l.49-.43,2.92-16-24.21-.12-5.41,31H338A60.82,60.82,0,0,1,334.74,226.7Z"/><line class="cls-3" x1="230.48" y1="246.83" x2="246.08" y2="246.83"/><polyline class="cls-3" points="363.27 268.45 153.72 268.45 170.44 246.83 187.06 246.83"/><polyline class="cls-3" points="415.08 246.83 465.44 246.83 482.16 268.45 429.98 268.45"/><line class="cls-3" x1="330.34" y1="246.83" x2="343.36" y2="246.83"/><line class="cls-3" x1="295.24" y1="246.83" x2="312.27" y2="246.83"/><path class="cls-3" d="M415,313.86c43,0,67.07.08,67.26.27V269"/><path class="cls-3" d="M175.46,314.11c30.92-.06,109.19-.2,184.31-.24"/><line class="cls-3" x1="153.91" y1="269.03" x2="153.91" y2="273.63"/><path class="cls-3" d="M414.75,299.5v48.18a11.1,11.1,0,0,1-11.1,11.1h0a11.09,11.09,0,0,1-11.09-11.1L391.4,320c0-2.32-2.57-3.34-3.78-3.34h0c-1.22,0-2.22,2.15-2.27,3.37l-4.18,26.57c-.86,7.14-5.21,11.73-11.68,11.81h0c-6.57.07-10.55-6.62-10.55-13.2l4.14-77.3c-18.18-13.07-25.89-30.42-28.34-41.25a10.41,10.41,0,0,1,4.34-11.53,6.1,6.1,0,0,1,2.12-.93h0A10.69,10.69,0,0,1,353,219.5c12.2,22.39,19.63,22.4,19.63,22.4"/><path class="cls-3" d="M413.79,247l1.29-1.06a29.08,29.08,0,1,0-31.71,4.49l.92.48"/><rect class="cls-3" x="382.28" y="247.32" width="47.79" height="51.46" rx="9.57" transform="translate(812.34 546.1) rotate(-180)"/><path class="cls-3" d="M423.41,298.43s-.72,10.63-8.2,11.1"/><circle class="cls-4" cx="414.67" cy="192.36" r="4.12"/><circle class="cls-3" cx="414.67" cy="192.36" r="4.12"/><path class="cls-3" d="M368.63,233c9.31-1.1,15.73-9,15.73-18.58a17.43,17.43,0,0,0-6-13.69"/><path class="cls-3" d="M363.16,267.88s5.32,15.84,19,12.75"/><path class="cls-3" d="M362.68,279.3s5.8,12.39,19.49,9.3"/><line class="cls-3" x1="412.36" y1="195.8" x2="410.45" y2="198.98"/><circle class="cls-3" cx="401.34" cy="228.24" r="4.31"/><circle class="cls-3" cx="301.18" cy="192.66" r="29.84"/><path class="cls-3" d="M273.35,204.44s-24.46,7.94-30.23,26.69a17.14,17.14,0,0,0,16.07,22.07l27.79.63a8.19,8.19,0,0,0,8.38-8.19v-.34a8.2,8.2,0,0,0-8.2-8.19l-25.33-1.73"/><polyline class="cls-3" points="338.05 236.67 328.35 236.67 333.76 205.67 357.97 205.79 355.05 221.81"/><path class="cls-3" d="M313,220.39s-1.13,8.45-5.27,25.85"/><path class="cls-3" d="M260.47,210.66s7.8,9.9,4.36,24.83"/><path class="cls-3" d="M269.3,206.42s7.08,16.34.51,29"/><line class="cls-3" x1="315.27" y1="219.57" x2="318.09" y2="229.22"/><path class="cls-3" d="M284.11,314.52l1.31,10.27A9.23,9.23,0,0,0,295.61,333h0c4.67-.52,8.8-4.75,8.79-9.45"/><path class="cls-3" d="M246.36,313.9l-1.14,9.73a9.22,9.22,0,0,0,9.22,9.23h0c5.13,1,10.71-3.54,11.22-8.22l3-10.12"/><path class="cls-3" d="M297.17,227s-5.31-5.51-11.54-4.07l.56,8.7S290.08,232.4,297.17,227Z"/><path class="cls-3" d="M297.25,226.9s3.38,7,9.78,7.12l1.54-8.58S305.43,223.34,297.25,226.9Z"/><path class="cls-3" d="M207.61,256.59c-4.65,1.59-10.83,2.52-16.92-.72a6.37,6.37,0,0,1-3.34-5.07l-2.86-34.06a5.62,5.62,0,0,1,2.28-5l5.08-3.72-1.91-12.21,10.48-2.37.91,13.31,7.32,3.86a5.61,5.61,0,0,1,3,4.53l1.09,14.32"/><polyline class="cls-3" points="191.49 195.07 190.41 190.14 197.97 188.52 198.35 193.6"/><path class="cls-3" d="M185,222.33s13.89,2.4,26.67-3.44"/><path class="cls-3" d="M186.72,240.93a50.09,50.09,0,0,0,19.69-1"/><ellipse class="cls-3" cx="218.65" cy="231.56" rx="11.88" ry="2.15"/><path class="cls-3" d="M206.77,231.56s.16,16.45.8,24.87a3.75,3.75,0,0,0,2.56,3.28c3.68,1.22,11.12,2.88,18.1-.41A3.7,3.7,0,0,0,230.3,256l.24-24.42"/><path class="cls-3" d="M330.76,220.52c-11,2.24-15,13.12-17.81,19.78-3.14,7.42,4.71,14.76,11.85,11l.34-.19a16.67,16.67,0,0,0,7.29-8.57l2.28-5.84-6.36-.05"/><path class="cls-3" d="M318.69,216.7c-20.45,0-24.61-13.95-24.62-19.37,0-1.58.45-4.22,1.46-5.43,2.11-2.53,7-6.1,17.65-5.45,6.07.37,7.74.63,11.15,1a41.21,41.21,0,0,1,6.55,1.29"/><circle class="cls-5" cx="321.14" cy="166.31" r="4.12"/><circle class="cls-3" cx="320.97" cy="166.58" r="4.12"/><line class="cls-3" x1="318.32" y1="169.81" x2="316.11" y2="173.29"/><path class="cls-3" d="M399.77,248.21v9.9a6.66,6.66,0,0,0,6.66,6.66h23.44"/><circle class="cls-3" cx="410.47" cy="276.59" r="2.37"/><circle class="cls-3" cx="417.64" cy="276.59" r="2.37"/><path class="cls-3" d="M430,274.32h-5.43c-1,0-1.85,1.1-1.85,2.46h0c0,1.35.83,2.45,1.85,2.45H430"/><path class="cls-3" d="M430,284.87H400.51c-1,0-1.86,1.1-1.86,2.46h0a2.21,2.21,0,0,0,1.86,2.45H430"/><circle class="cls-3" cx="280.82" cy="190.99" r="4.31"/><path class="cls-3" d="M207.12,237.18a16.8,16.8,0,0,0,3,1.11,31.21,31.21,0,0,0,12.1.82,36.77,36.77,0,0,0,4.49-.8c.41-.1.83-.2,1.26-.32.73-.2,1.47-.42,2.23-.67"/><ellipse class="cls-3" cx="447.83" cy="228.39" rx="12.79" ry="2.41"/><path class="cls-3" d="M435,228.39v2.16a12.78,12.78,0,0,0,12.59,12.78h0a12.78,12.78,0,0,0,13-12.59l0-2.22"/><path class="cls-3" d="M448.16,243.38v9.94c4.23,0,5.55,2.53,5.55,2.53H442.94a7.11,7.11,0,0,1,5.11-2.53"/><polygon class="cls-6" points="395.1 80.23 396.96 81.27 395.1 82.31 394.08 84.21 393.06 82.31 391.19 81.27 393.06 80.23 394.08 78.33 395.1 80.23"/><polygon class="cls-6" points="347.33 56.34 349.19 57.39 347.33 58.43 346.31 60.33 345.29 58.43 343.43 57.39 345.29 56.34 346.31 54.44 347.33 56.34"/><polygon class="cls-6" points="485.67 123.05 487.54 124.09 485.67 125.13 484.65 127.03 483.64 125.13 481.77 124.09 483.64 123.05 484.65 121.15 485.67 123.05"/><polygon class="cls-6" points="178.38 99.55 179.56 100.21 178.38 100.86 177.74 102.06 177.1 100.86 175.93 100.21 177.1 99.55 177.74 98.36 178.38 99.55"/><polygon class="cls-6" points="464.96 171.24 466.07 171.86 464.96 172.48 464.35 173.61 463.75 172.48 462.63 171.86 463.75 171.24 464.35 170.1 464.96 171.24"/><polygon class="cls-6" points="453.02 147.35 454.13 147.97 453.02 148.6 452.41 149.73 451.8 148.6 450.69 147.97 451.8 147.35 452.41 146.22 453.02 147.35"/><polygon class="cls-6" points="536.61 87.64 537.72 88.27 536.61 88.89 536 90.02 535.4 88.89 534.29 88.27 535.4 87.64 536 86.51 536.61 87.64"/><polygon class="cls-6" points="238.06 63.76 239.17 64.38 238.06 65 237.45 66.14 236.85 65 235.74 64.38 236.85 63.76 237.45 62.63 238.06 63.76"/><polygon class="cls-6" points="142.53 87.64 143.63 88.27 142.53 88.89 141.92 90.02 141.31 88.89 140.2 88.27 141.31 87.64 141.92 86.51 142.53 87.64"/><polygon class="cls-6" points="46.99 87.64 48.1 88.27 46.99 88.89 46.38 90.02 45.77 88.89 44.66 88.27 45.77 87.64 46.38 86.51 46.99 87.64"/><polygon class="cls-6" points="50.66 203.38 51.77 204 50.66 204.62 50.05 205.76 49.44 204.62 48.33 204 49.44 203.38 50.05 202.25 50.66 203.38"/><polygon class="cls-6" points="69.66 146.6 70.77 147.22 69.66 147.84 69.05 148.98 68.44 147.84 67.33 147.22 68.44 146.6 69.05 145.47 69.66 146.6"/><polygon class="cls-6" points="540.83 239.97 541.94 240.59 540.83 241.21 540.23 242.34 539.62 241.21 538.51 240.59 539.62 239.97 540.23 238.83 540.83 239.97"/><polygon class="cls-6" points="607.63 221.51 608.74 222.13 607.63 222.75 607.02 223.89 606.42 222.75 605.31 222.13 606.42 221.51 607.02 220.38 607.63 221.51"/><polygon class="cls-6" points="-1.08 217.56 0.03 218.18 -1.08 218.8 -1.69 219.93 -2.29 218.8 -3.4 218.18 -2.29 217.56 -1.69 216.42 -1.08 217.56"/><polygon class="cls-6" points="33.73 227.35 34.84 227.97 33.73 228.59 33.12 229.73 32.52 228.59 31.41 227.97 32.52 227.35 33.12 226.22 33.73 227.35"/><polygon class="cls-3" points="532.64 205.92 536.51 207.53 532.64 209.15 531.03 213.02 529.41 209.16 525.54 207.55 529.4 205.93 531.01 202.06 532.64 205.92"/><polygon class="cls-3" points="191.35 156.65 195.22 158.26 191.35 159.88 189.74 163.75 188.12 159.89 184.25 158.28 188.12 156.66 189.72 152.78 191.35 156.65"/><polygon class="cls-3" points="274.94 73.06 278.81 74.67 274.95 76.29 273.34 80.16 271.71 76.29 267.84 74.69 271.71 73.06 273.32 69.19 274.94 73.06"/><polygon class="cls-3" points="179.41 37.23 183.28 38.84 179.41 40.46 177.8 44.33 176.18 40.47 172.31 38.86 176.17 37.24 177.78 33.37 179.41 37.23"/><polygon class="cls-3" points="396.79 38.33 400.66 39.94 396.8 41.56 395.19 45.43 393.56 41.57 389.69 39.96 393.56 38.34 395.17 34.47 396.79 38.33"/><polygon class="cls-3" points="43.01 160.31 46.88 161.92 43.02 163.54 41.41 167.41 39.79 163.55 35.92 161.94 39.78 160.32 41.39 156.44 43.01 160.31"/><polygon class="cls-3" points="592.35 136.43 596.22 138.03 592.35 139.66 590.74 143.53 589.12 139.66 585.25 138.05 589.12 136.43 590.72 132.56 592.35 136.43"/><path class="cls-3" d="M514.68,167.55c-.66.33-1.29.65-1.89,1-4.38,2.31-7,4.29-6.61,5.25.65,1.71,10.46-.43,21.92-4.78s20.21-9.27,19.55-11c-.37-1-3.74-.7-8.7.54"/><path class="cls-3" d="M334.54,156.2s6.4-4.12,4.57-11.44"/><ellipse class="cls-3" cx="460.2" cy="49.69" rx="21.43" ry="21.19"/><circle class="cls-3" cx="215.01" cy="245" r="1.22"/><circle class="cls-3" cx="221.06" cy="243.52" r="1.22"/><circle class="cls-3" cx="216.29" cy="238.1" r="1.22"/><path class="cls-3" d="M323.6,167.93C440.89,175.34,542.65,246,579.09,294"/><path class="cls-2" d="M334.74,226.7c-1.51-6.69,2.28-10.37,5.4-12.21l1.06-.25A10.69,10.69,0,0,1,353,219.5c.52,1,1,1.86,1.54,2.74l.49-.43,2.92-16-24.21-.12-5.41,31H338A60.82,60.82,0,0,1,334.74,226.7Z"/><line class="cls-3" x1="230.48" y1="246.83" x2="246.08" y2="246.83"/><polyline class="cls-3" points="363.27 268.45 153.72 268.45 170.44 246.83 187.06 246.83"/><polyline class="cls-3" points="415.08 246.83 465.44 246.83 482.16 268.45 429.98 268.45"/><line class="cls-3" x1="330.34" y1="246.83" x2="343.36" y2="246.83"/><line class="cls-3" x1="295.24" y1="246.83" x2="312.27" y2="246.83"/><path class="cls-3" d="M415,313.86c43,0,67.07.08,67.26.27V269"/><path class="cls-3" d="M414.75,299.5v48.18a11.1,11.1,0,0,1-11.1,11.1h0a11.09,11.09,0,0,1-11.09-11.1L391.4,320c0-2.32-2.57-3.34-3.78-3.34h0c-1.22,0-2.22,2.15-2.27,3.37l-4.18,26.57c-.86,7.14-5.21,11.73-11.68,11.81h0c-6.57.07-10.55-6.62-10.55-13.2l4.14-77.3c-18.18-13.07-25.89-30.42-28.34-41.25a10.41,10.41,0,0,1,4.34-11.53,6.1,6.1,0,0,1,2.12-.93h0A10.69,10.69,0,0,1,353,219.5c12.2,22.39,19.63,22.4,19.63,22.4"/><path class="cls-3" d="M413.79,247l1.29-1.06a29.08,29.08,0,1,0-31.71,4.49l.92.48"/><rect class="cls-3" x="382.28" y="247.32" width="47.79" height="51.46" rx="9.57" transform="translate(812.34 546.1) rotate(-180)"/><path class="cls-3" d="M423.41,298.43s-.72,10.63-8.2,11.1"/><path class="cls-3" d="M368.63,233c9.31-1.1,15.73-9,15.73-18.58a17.43,17.43,0,0,0-6-13.69"/><path class="cls-3" d="M363.16,267.88s5.32,15.84,19,12.75"/><path class="cls-3" d="M362.68,279.3s5.8,12.39,19.49,9.3"/><line class="cls-3" x1="412.36" y1="195.8" x2="410.45" y2="198.98"/><circle class="cls-3" cx="401.34" cy="228.24" r="4.31"/><circle class="cls-3" cx="301.18" cy="192.66" r="29.84"/><path class="cls-3" d="M273.35,204.44s-24.46,7.94-30.23,26.69a17.14,17.14,0,0,0,16.07,22.07l27.79.63a8.19,8.19,0,0,0,8.38-8.19v-.34a8.2,8.2,0,0,0-8.2-8.19l-25.33-1.73"/><polyline class="cls-3" points="338.05 236.67 328.35 236.67 333.76 205.67 357.97 205.79 355.05 221.81"/><path class="cls-3" d="M313,220.39s-1.13,8.45-5.27,25.85"/><path class="cls-3" d="M260.47,210.66s7.8,9.9,4.36,24.83"/><path class="cls-3" d="M269.3,206.42s7.08,16.34.51,29"/><line class="cls-3" x1="315.27" y1="219.57" x2="318.09" y2="229.22"/><path class="cls-3" d="M284.11,314.52l1.31,10.27A9.23,9.23,0,0,0,295.61,333h0c4.67-.52,8.8-4.75,8.79-9.45l.48-9.51"/><path class="cls-3" d="M246.36,313.9l-1.14,9.73a9.22,9.22,0,0,0,9.22,9.23h0c5.13,1,10.71-3.54,11.22-8.22l3-10.12"/><path class="cls-7" d="M297.17,227s-5.31-5.51-11.54-4.07l.56,8.7S290.08,232.4,297.17,227Z"/><path class="cls-7" d="M297.25,226.9s3.38,7,9.78,7.12l1.54-8.58S305.43,223.34,297.25,226.9Z"/><path class="cls-3" d="M207.61,256.59c-4.65,1.59-10.83,2.52-16.92-.72a6.37,6.37,0,0,1-3.34-5.07l-2.86-34.06a5.62,5.62,0,0,1,2.28-5l5.08-3.72-1.91-12.21,10.48-2.37.91,13.31,7.32,3.86a5.61,5.61,0,0,1,3,4.53l1.09,14.32"/><polyline class="cls-3" points="191.49 195.07 190.41 190.14 197.97 188.52 198.35 193.6"/><path class="cls-3" d="M185,222.33s13.89,2.4,26.67-3.44"/><path class="cls-3" d="M186.72,240.93a50.09,50.09,0,0,0,19.69-1"/><ellipse class="cls-3" cx="218.65" cy="231.56" rx="11.88" ry="2.15"/><path class="cls-3" d="M206.77,231.56s.16,16.45.8,24.87a3.75,3.75,0,0,0,2.56,3.28c3.68,1.22,11.12,2.88,18.1-.41A3.7,3.7,0,0,0,230.3,256l.24-24.42"/><path class="cls-3" d="M330.76,220.52c-11,2.24-15,13.12-17.81,19.78-3.14,7.42,4.71,14.76,11.85,11l.34-.19a16.67,16.67,0,0,0,7.29-8.57l2.28-5.84-6.36-.05"/><path class="cls-3" d="M318.69,216.7c-20.45,0-24.61-13.95-24.62-19.37,0-1.58.45-4.22,1.46-5.43,2.11-2.53,7-6.1,17.65-5.45,6.07.37,7.74.63,11.15,1a41.21,41.21,0,0,1,6.55,1.29"/><circle class="cls-4" cx="321.14" cy="166.31" r="4.12"/><circle class="cls-3" cx="320.97" cy="166.58" r="4.12"/><line class="cls-3" x1="318.32" y1="169.81" x2="316.11" y2="173.29"/><path class="cls-3" d="M399.77,248.21v9.9a6.66,6.66,0,0,0,6.66,6.66h23.44"/><circle class="cls-3" cx="410.47" cy="276.59" r="2.37"/><circle class="cls-3" cx="417.64" cy="276.59" r="2.37"/><path class="cls-3" d="M430,274.32h-5.43c-1,0-1.85,1.1-1.85,2.46h0c0,1.35.83,2.45,1.85,2.45H430"/><path class="cls-3" d="M430,284.87H400.51c-1,0-1.86,1.1-1.86,2.46h0a2.21,2.21,0,0,0,1.86,2.45H430"/><circle class="cls-3" cx="280.82" cy="190.99" r="4.31"/><path class="cls-3" d="M207.12,237.18a16.8,16.8,0,0,0,3,1.11,31.21,31.21,0,0,0,12.1.82,36.77,36.77,0,0,0,4.49-.8c.41-.1.83-.2,1.26-.32.73-.2,1.47-.42,2.23-.67"/><ellipse class="cls-3" cx="447.83" cy="228.39" rx="12.79" ry="2.41"/><path class="cls-3" d="M435,228.39v2.16a12.78,12.78,0,0,0,12.59,12.78h0a12.78,12.78,0,0,0,13-12.59l0-2.22"/><path class="cls-3" d="M448.16,243.38v9.94c4.23,0,5.55,2.53,5.55,2.53H442.94a7.11,7.11,0,0,1,5.11-2.53"/><path class="cls-3" d="M38.43,280.56c48.18-62.19,137.32-107.8,246-112.92"/><circle class="cls-8" cx="103.7" cy="124.36" r="9.4"/><circle class="cls-8" cx="527.82" cy="166.35" r="13.31"/><polygon class="cls-6" points="130.01 150.45 131.87 151.49 130.01 152.53 128.99 154.43 127.97 152.53 126.11 151.49 127.97 150.45 128.99 148.54 130.01 150.45"/><polygon class="cls-6" points="395.1 80.23 396.96 81.27 395.1 82.31 394.08 84.21 393.06 82.31 391.19 81.27 393.06 80.23 394.08 78.33 395.1 80.23"/><polygon class="cls-6" points="347.33 56.34 349.19 57.39 347.33 58.43 346.31 60.33 345.29 58.43 343.43 57.39 345.29 56.34 346.31 54.44 347.33 56.34"/><polygon class="cls-6" points="485.67 123.05 487.54 124.09 485.67 125.13 484.65 127.03 483.64 125.13 481.77 124.09 483.64 123.05 484.65 121.15 485.67 123.05"/><polygon class="cls-6" points="178.38 99.55 179.56 100.21 178.38 100.86 177.74 102.06 177.1 100.86 175.93 100.21 177.1 99.55 177.74 98.36 178.38 99.55"/><polygon class="cls-6" points="464.96 171.24 466.07 171.86 464.96 172.48 464.35 173.61 463.75 172.48 462.63 171.86 463.75 171.24 464.35 170.1 464.96 171.24"/><polygon class="cls-6" points="453.02 147.35 454.13 147.97 453.02 148.6 452.41 149.73 451.8 148.6 450.69 147.97 451.8 147.35 452.41 146.22 453.02 147.35"/><polygon class="cls-6" points="536.61 87.64 537.72 88.27 536.61 88.89 536 90.02 535.4 88.89 534.29 88.27 535.4 87.64 536 86.51 536.61 87.64"/><polygon class="cls-6" points="238.06 63.76 239.17 64.38 238.06 65 237.45 66.14 236.85 65 235.74 64.38 236.85 63.76 237.45 62.63 238.06 63.76"/><polygon class="cls-6" points="142.53 87.64 143.63 88.27 142.53 88.89 141.92 90.02 141.31 88.89 140.2 88.27 141.31 87.64 141.92 86.51 142.53 87.64"/><polygon class="cls-6" points="46.99 87.64 48.1 88.27 46.99 88.89 46.38 90.02 45.77 88.89 44.66 88.27 45.77 87.64 46.38 86.51 46.99 87.64"/><polygon class="cls-6" points="50.66 203.38 51.77 204 50.66 204.62 50.05 205.76 49.44 204.62 48.33 204 49.44 203.38 50.05 202.25 50.66 203.38"/><polygon class="cls-6" points="69.66 146.6 70.77 147.22 69.66 147.84 69.05 148.98 68.44 147.84 67.33 147.22 68.44 146.6 69.05 145.47 69.66 146.6"/><polygon class="cls-6" points="540.83 239.97 541.94 240.59 540.83 241.21 540.23 242.34 539.62 241.21 538.51 240.59 539.62 239.97 540.23 238.83 540.83 239.97"/><polygon class="cls-6" points="607.63 221.51 608.74 222.13 607.63 222.75 607.02 223.89 606.42 222.75 605.31 222.13 606.42 221.51 607.02 220.38 607.63 221.51"/><polygon class="cls-6" points="-1.08 217.56 0.03 218.18 -1.08 218.8 -1.69 219.93 -2.29 218.8 -3.4 218.18 -2.29 217.56 -1.69 216.42 -1.08 217.56"/><polygon class="cls-6" points="33.73 227.35 34.84 227.97 33.73 228.59 33.12 229.73 32.52 228.59 31.41 227.97 32.52 227.35 33.12 226.22 33.73 227.35"/><polygon class="cls-3" points="532.64 205.92 536.51 207.53 532.64 209.15 531.03 213.02 529.41 209.16 525.54 207.55 529.4 205.93 531.01 202.06 532.64 205.92"/><polygon class="cls-3" points="191.35 156.65 195.22 158.26 191.35 159.88 189.74 163.75 188.12 159.89 184.25 158.28 188.12 156.66 189.72 152.78 191.35 156.65"/><polygon class="cls-3" points="274.94 73.06 278.81 74.67 274.95 76.29 273.34 80.16 271.71 76.29 267.84 74.69 271.71 73.06 273.32 69.19 274.94 73.06"/><polygon class="cls-3" points="179.41 37.23 183.28 38.84 179.41 40.46 177.8 44.33 176.18 40.47 172.31 38.86 176.17 37.24 177.78 33.37 179.41 37.23"/><polygon class="cls-3" points="396.79 38.33 400.66 39.94 396.8 41.56 395.19 45.43 393.56 41.57 389.69 39.96 393.56 38.34 395.17 34.47 396.79 38.33"/><polygon class="cls-3" points="43.01 160.31 46.88 161.92 43.02 163.54 41.41 167.41 39.79 163.55 35.92 161.94 39.78 160.32 41.39 156.44 43.01 160.31"/><polygon class="cls-3" points="592.35 136.43 596.22 138.03 592.35 139.66 590.74 143.53 589.12 139.66 585.25 138.05 589.12 136.43 590.72 132.56 592.35 136.43"/><path class="cls-3" d="M514.68,167.55c-.66.33-1.29.65-1.89,1-4.38,2.31-7,4.29-6.61,5.25.65,1.71,10.46-.43,21.92-4.78s20.21-9.27,19.55-11c-.37-1-3.74-.7-8.7.54"/><path class="cls-3" d="M334.54,156.2s6.4-4.12,4.57-11.44H221.55a20.13,20.13,0,0,1-20.13-20.13h0a20.13,20.13,0,0,1,20.13-20.13H406.91A20.13,20.13,0,0,1,427,124.63V126a20.12,20.12,0,0,1-20.12,20.12H348.42"/><ellipse class="cls-3" cx="460.2" cy="49.69" rx="21.43" ry="21.19"/><circle class="cls-3" cx="215.01" cy="245" r="1.22"/><circle class="cls-3" cx="221.06" cy="243.52" r="1.22"/><circle class="cls-3" cx="216.29" cy="238.1" r="1.22"/><path class="cls-9" d="M230.27,256.38a3.66,3.66,0,0,1-2,2.92c-7,3.29-14.42,1.63-18.1.41a3.72,3.72,0,0,1-2.53-3.11c-4.14,1.41-9.49,2.29-14.9.18-3.34.63-5.34,1.42-5.34,2.28,0,2.05,11.34,3.71,25.33,3.71S238,261.11,238,259.06C238,258,235,257.06,230.27,256.38Z"/><ellipse class="cls-3" cx="201.18" cy="350.78" rx="6.42" ry="2.27"/><ellipse class="cls-3" cx="513.63" cy="289.58" rx="6.42" ry="2.27"/><path class="cls-10" d="M99.82,317.92a5.66,5.66,0,0,1-1.88,1.19,3.17,3.17,0,0,1-1.62.14,2.78,2.78,0,0,1-1.35-.67,4.79,4.79,0,0,1-1-1.31,7.23,7.23,0,0,1-.65-1.71,8.15,8.15,0,0,1-.25-1.92,8.56,8.56,0,0,1,.18-1.9,5.73,5.73,0,0,1,.66-1.69,4,4,0,0,1,1.18-1.27,3.59,3.59,0,0,1,1.73-.62,4.64,4.64,0,0,1,.54.12,2.28,2.28,0,0,1,.63.24,1.42,1.42,0,0,1,.46.36.48.48,0,0,1,.08.49.41.41,0,0,1-.27.22.33.33,0,0,1-.32,0,3.21,3.21,0,0,0-1.72-.21A2.25,2.25,0,0,0,95,310a3.22,3.22,0,0,0-.72,1.27A6.7,6.7,0,0,0,94,313a8.88,8.88,0,0,0,.12,1.77,7.64,7.64,0,0,0,.49,1.66,4.77,4.77,0,0,0,.8,1.3,2.13,2.13,0,0,0,1.07.7,2,2,0,0,0,1.32-.16A4.56,4.56,0,0,0,99.33,317a.5.5,0,0,1,.32,0,.47.47,0,0,1,.27.16.53.53,0,0,1,.1.34A.87.87,0,0,1,99.82,317.92Z"/><path class="cls-10" d="M102.9,319.24a2,2,0,0,1-.82-.38,3.37,3.37,0,0,1-.69-.76,3.76,3.76,0,0,1-.47-1,3.4,3.4,0,0,1-.18-1.08,2.67,2.67,0,0,1,.2-1,1.93,1.93,0,0,1,.65-.83,2.88,2.88,0,0,1,1.2-.49,5.83,5.83,0,0,1,1.82,0,2.09,2.09,0,0,1,1,.7,3,3,0,0,1,.59,1.14,3.44,3.44,0,0,1,.09,1.32,2.61,2.61,0,0,1-.47,1.23,2.67,2.67,0,0,1-1.11.88A3.73,3.73,0,0,1,102.9,319.24Zm1.18-4.76a2.37,2.37,0,0,0-1.27.08,1.57,1.57,0,0,0-.78.58,1.69,1.69,0,0,0-.3.89,2.42,2.42,0,0,0,.13,1,2.56,2.56,0,0,0,.51.87,1.79,1.79,0,0,0,.87.54,2.65,2.65,0,0,0,1.41-.22,1.59,1.59,0,0,0,.7-.71,1.91,1.91,0,0,0,.15-1,3.15,3.15,0,0,0-.26-1,2.52,2.52,0,0,0-.53-.76A1,1,0,0,0,104.08,314.48Z"/><path class="cls-10" d="M107.5,319.15s0-.06,0-.13v-.51c0-.08,0-.12,0-.13a1.35,1.35,0,0,0,.68.13,4.05,4.05,0,0,0,.84-.12,3.25,3.25,0,0,0,.74-.28.94.94,0,0,0,.44-.37.33.33,0,0,0-.1-.41,2.16,2.16,0,0,0-.88-.38,1.32,1.32,0,0,1-.35,0,4.19,4.19,0,0,1-.58-.18,3,3,0,0,1-.62-.35,1.26,1.26,0,0,1-.44-.51,1,1,0,0,1,0-.68,2.09,2.09,0,0,1,.56-.88,3.08,3.08,0,0,1,.88-.53,2.88,2.88,0,0,1,.8-.17,1.55,1.55,0,0,1,.63.09.82.82,0,0,1,.39.24.28.28,0,0,1,0,.29c0,.1-.15.18-.34.24a2.81,2.81,0,0,0-1.19.22,1.51,1.51,0,0,0-.67.53.5.5,0,0,0,0,.57,1.14,1.14,0,0,0,.78.38,3.87,3.87,0,0,1,1.55.36,1.17,1.17,0,0,1,.61.67.9.9,0,0,1-.16.77,2.2,2.2,0,0,1-.77.7,4,4,0,0,1-1.23.45A4.35,4.35,0,0,1,107.5,319.15Z"/><path class="cls-10" d="M120.6,318.65a5.33,5.33,0,0,0,0-2,4.32,4.32,0,0,0-.54-1.5,1.84,1.84,0,0,0-.84-.77.79.79,0,0,0-.89.19,2.84,2.84,0,0,0-.69,1.38,10.08,10.08,0,0,0-.21,2.81,1.06,1.06,0,0,1-.16.22.84.84,0,0,1-.24.19.32.32,0,0,1-.24.05c-.08,0-.12-.1-.14-.25a14.71,14.71,0,0,0-.55-2.87,2.51,2.51,0,0,0-.68-1.19.5.5,0,0,0-.69.09,2.73,2.73,0,0,0-.6,1,7.48,7.48,0,0,0-.4,1.44,6,6,0,0,0-.08,1.51.83.83,0,0,1-.06.45.27.27,0,0,1-.2.18.45.45,0,0,1-.29-.05.66.66,0,0,1-.26-.24c0-.09,0-.25-.08-.48s0-.49-.08-.79-.06-.6-.09-.93-.07-.64-.1-.93,0-.56-.08-.79a2.3,2.3,0,0,0-.08-.48,1.45,1.45,0,0,1,.17-.86.25.25,0,0,1,.36,0,1.35,1.35,0,0,1,.35.53,2.06,2.06,0,0,1,.14.84,3.78,3.78,0,0,1,.4-.62,3.64,3.64,0,0,1,.54-.57,2.73,2.73,0,0,1,.62-.38,1,1,0,0,1,.67-.07,1.31,1.31,0,0,1,.65.4,3.46,3.46,0,0,1,.6,1,3.91,3.91,0,0,1,1.66-1.65,1.47,1.47,0,0,1,1.5.17,3.7,3.7,0,0,1,1.13,1.74,11,11,0,0,1,.57,3.09l-.29.34a1,1,0,0,1-.29.21.32.32,0,0,1-.27,0A.6.6,0,0,1,120.6,318.65Z"/><path class="cls-10" d="M124.77,319a2,2,0,0,1-.83-.39,3.11,3.11,0,0,1-.69-.75,4.1,4.1,0,0,1-.47-1,3.49,3.49,0,0,1-.18-1.08,2.94,2.94,0,0,1,.2-1,2,2,0,0,1,.65-.82,3,3,0,0,1,1.2-.49,6.12,6.12,0,0,1,1.82,0,2.26,2.26,0,0,1,1,.71,3.08,3.08,0,0,1,.58,1.14,3.42,3.42,0,0,1,.1,1.32,2.62,2.62,0,0,1-1.59,2.11A3.81,3.81,0,0,1,124.77,319Zm1.17-4.76a2.48,2.48,0,0,0-1.27.07,1.69,1.69,0,0,0-.78.59,1.85,1.85,0,0,0-.3.89,2.53,2.53,0,0,0,.13,1,2.6,2.6,0,0,0,.51.88,1.78,1.78,0,0,0,.88.54,2.63,2.63,0,0,0,1.4-.22,1.56,1.56,0,0,0,.7-.72,1.89,1.89,0,0,0,.15-.95,2.9,2.9,0,0,0-.26-1,2.4,2.4,0,0,0-.53-.76A.92.92,0,0,0,125.94,314.27Z"/><path class="cls-10" d="M129.43,318.75s0-.05,0-.13a1.93,1.93,0,0,0,0-.25v-.26a.24.24,0,0,0,0-.13,1.38,1.38,0,0,0,.68.13,4,4,0,0,0,.84-.12,3.16,3.16,0,0,0,.75-.28,1,1,0,0,0,.44-.37.33.33,0,0,0-.11-.41,2.1,2.1,0,0,0-.88-.38,1.26,1.26,0,0,1-.34,0,4.29,4.29,0,0,1-.59-.18,3.36,3.36,0,0,1-.61-.34,1.38,1.38,0,0,1-.45-.52,1,1,0,0,1,0-.68,2.09,2.09,0,0,1,.56-.88,3.08,3.08,0,0,1,.88-.53,2.88,2.88,0,0,1,.8-.17,1.55,1.55,0,0,1,.63.09.73.73,0,0,1,.38.24.27.27,0,0,1,.06.29c0,.1-.15.18-.34.24a2.81,2.81,0,0,0-1.19.22,1.51,1.51,0,0,0-.67.53.48.48,0,0,0,0,.57,1.09,1.09,0,0,0,.77.38,3.83,3.83,0,0,1,1.55.36,1.19,1.19,0,0,1,.62.67.9.9,0,0,1-.16.77,2.23,2.23,0,0,1-.78.7,4.21,4.21,0,0,1-2.75.47Z"/><path class="cls-10" d="M134.24,316.14a.76.76,0,0,1-.27-.53c0-.17.1-.29.34-.35l3.11-.08c.28.07.41.19.4.37a.71.71,0,0,1-.38.53l-.61,0-1,0h-1.6Z"/><path class="cls-10" d="M138.68,313.47a2.45,2.45,0,0,1,.9-.7,1.72,1.72,0,0,1,.91-.12,1.88,1.88,0,0,1,.85.34,3.26,3.26,0,0,1,.75.69,5,5,0,0,1,.61.91,5.92,5.92,0,0,1,.4,1,1.53,1.53,0,0,1-.12,1.19,2.49,2.49,0,0,1-.84.9,2.9,2.9,0,0,1-1.22.45,1.84,1.84,0,0,1-1.22-.23l.22,3.37-.11,0-.23,0-.22,0h-.1Zm1.08,3.75a4.07,4.07,0,0,0,1.72,0,1.23,1.23,0,0,0,.83-.54,1.33,1.33,0,0,0,.15-.9,3.25,3.25,0,0,0-.35-1,3.88,3.88,0,0,0-.66-.89,2.25,2.25,0,0,0-.78-.52.72.72,0,0,0-.7.07,1.3,1.3,0,0,0-.44.92c0,.17,0,.39,0,.65s0,.52,0,.79a6.53,6.53,0,0,0,.05.78A1.85,1.85,0,0,0,139.76,317.22Z"/><path class="cls-10" d="M145.9,318.23a2,2,0,0,1-.83-.39,3.11,3.11,0,0,1-.69-.75,4.1,4.1,0,0,1-.47-1,3.49,3.49,0,0,1-.18-1.08,2.94,2.94,0,0,1,.2-1,2,2,0,0,1,.65-.82,2.93,2.93,0,0,1,1.2-.49,6.11,6.11,0,0,1,1.82,0,2.11,2.11,0,0,1,1,.71,3,3,0,0,1,.59,1.14,3.23,3.23,0,0,1,.09,1.32,2.61,2.61,0,0,1-.47,1.23,2.76,2.76,0,0,1-1.11.88A3.81,3.81,0,0,1,145.9,318.23Zm1.17-4.76a2.48,2.48,0,0,0-1.27.07,1.69,1.69,0,0,0-.78.59,1.85,1.85,0,0,0-.3.89,2.53,2.53,0,0,0,.13,1,2.6,2.6,0,0,0,.51.88,1.79,1.79,0,0,0,.87.54,2.65,2.65,0,0,0,1.41-.22,1.56,1.56,0,0,0,.7-.72,1.89,1.89,0,0,0,.15-1,2.9,2.9,0,0,0-.26-1,2.4,2.4,0,0,0-.53-.76A.92.92,0,0,0,147.07,313.47Z"/><path class="cls-10" d="M149.64,307.51a.46.46,0,0,1,.08-.39.57.57,0,0,1,.3-.2.39.39,0,0,1,.33.06.52.52,0,0,1,.17.42l.68,10.11a.27.27,0,0,1-.07.27.66.66,0,0,1-.3.2.39.39,0,0,1-.34-.07.77.77,0,0,1-.17-.55Z"/><path class="cls-10" d="M152.16,310.81a.63.63,0,0,1-.34-.68.48.48,0,0,1,.22-.27.56.56,0,0,1,.45,0,.43.43,0,0,1,.26.28,1.14,1.14,0,0,1,.06.44.47.47,0,0,1-.18.33C152.52,311,152.37,310.93,152.16,310.81Zm0,1.93a.31.31,0,0,1,.09-.18.33.33,0,0,1,.19-.11.59.59,0,0,1,.26,0,.9.9,0,0,1,.33.21l.37,4.94a.71.71,0,0,1-.18.39.36.36,0,0,1-.27.08.47.47,0,0,1-.25-.13.37.37,0,0,1-.12-.24Z"/><path class="cls-10" d="M155.74,312.54l-2.34.17a.67.67,0,0,1,.17-.7,1.36,1.36,0,0,1,.63-.23c.25,0,.5,0,.77,0a1.24,1.24,0,0,0,.61-.12l-.19-3.53a.34.34,0,0,1,0-.19.57.57,0,0,1,.11-.28.48.48,0,0,1,.27-.19.5.5,0,0,1,.42.08l.39,4.14a.74.74,0,0,0,.38,0,4.58,4.58,0,0,0,.56-.11l.6-.12a1.14,1.14,0,0,1,.48,0,.28.28,0,0,1,.23.22,1,1,0,0,1-.18.57l-2,.34c0,.06,0,.21,0,.46s0,.53.07.86.06.69.1,1.07.08.73.1,1.07.06.63.08.88,0,.41,0,.47a1.13,1.13,0,0,1-.15.59.51.51,0,0,1-.32.22.47.47,0,0,1-.34-.08.48.48,0,0,1-.17-.37Z"/><path class="cls-10" d="M158.71,317.1a3.29,3.29,0,0,1-.35-1.34,3.89,3.89,0,0,1,.16-1.33,4.1,4.1,0,0,1,.56-1.15,2.7,2.7,0,0,1,.86-.8,2,2,0,0,1,1-.28,1.89,1.89,0,0,1,1.09.42,1.39,1.39,0,0,1,.51.72,4.13,4.13,0,0,1,.17.93c0,.32,0,.62,0,.92a3.22,3.22,0,0,0,0,.67,1.45,1.45,0,0,0,.39.75,1.49,1.49,0,0,0,.46.27,2.81,2.81,0,0,1,.38.17c.1.05.15.18.13.39a.72.72,0,0,1-.56.24,1.71,1.71,0,0,1-.59-.11,4.08,4.08,0,0,1-.51-.23c-.15-.08-.24-.1-.3-.08-.3.18-.6.35-.91.51a2.8,2.8,0,0,1-.9.3,1.47,1.47,0,0,1-.87-.15A2,2,0,0,1,158.71,317.1Zm.83-2.87a3.8,3.8,0,0,0-.25,1.23,2.57,2.57,0,0,0,.15,1.08,1.1,1.1,0,0,0,.59.64,1.39,1.39,0,0,0,1.09-.1,1.14,1.14,0,0,0,.64-.7,2.72,2.72,0,0,0,.17-1.12,3.83,3.83,0,0,0-.21-1.16,1.69,1.69,0,0,0-.51-.81.73.73,0,0,0-.76-.08A2.16,2.16,0,0,0,159.54,314.23Z"/><path class="cls-10" d="M165.49,318.08c0-.06,0-.23-.06-.5s-.06-.6-.11-1-.08-.79-.12-1.23-.08-.84-.12-1.23-.07-.71-.1-1,0-.45,0-.51a2,2,0,0,1,.32-.11.28.28,0,0,1,.25.06.92.92,0,0,1,.19.35,6.24,6.24,0,0,1,.2.73,3.39,3.39,0,0,1,1.21-1.07,1.1,1.1,0,0,1,1,0,1.75,1.75,0,0,1,.72.79,6,6,0,0,1,.49,1.28,9,9,0,0,1,.25,1.51,10.34,10.34,0,0,1,0,1.45c0,.12,0,.2-.1.23a.3.3,0,0,1-.21,0,.73.73,0,0,1-.25-.1l-.26-.15a5.43,5.43,0,0,1-.05-.6c0-.26,0-.55-.08-.87s-.07-.64-.12-1-.12-.62-.19-.89a2.26,2.26,0,0,0-.29-.64.43.43,0,0,0-.41-.21,1.57,1.57,0,0,0-.94.44,2,2,0,0,0-.44.83,3.69,3.69,0,0,0-.09,1c0,.35,0,.69.06,1s.06.57.07.78,0,.34-.1.38L166,318l-.22.07-.21.06C165.54,318.11,165.51,318.1,165.49,318.08Z"/><path class="cls-10" d="M101.33,341.68c0-.23-.07-.55-.11-1s-.07-.9-.11-1.45-.07-1.13-.11-1.76-.08-1.26-.13-1.91-.11-1.27-.17-1.89-.14-1.18-.21-1.7a4,4,0,0,1,1.76-.85,3,3,0,0,1,1.54.09,2.9,2.9,0,0,1,1.2.79,3.51,3.51,0,0,1,.74,1.25,3.34,3.34,0,0,1,.18,1.48,3.2,3.2,0,0,1-.51,1.49,4.17,4.17,0,0,1-1.32,1.24,5.79,5.79,0,0,1-2.24.76l.45,3.47a.33.33,0,0,1-.2.18.63.63,0,0,1-.31,0,.73.73,0,0,1-.3-.07A.27.27,0,0,1,101.33,341.68Zm.5-4.34a3.57,3.57,0,0,0,1.54-.33,2.88,2.88,0,0,0,1-.8,2.8,2.8,0,0,0,.51-1.09,3.64,3.64,0,0,0,.05-1.18,2.88,2.88,0,0,0-.35-1.06,1.9,1.9,0,0,0-.72-.74,1.73,1.73,0,0,0-1-.24,2.8,2.8,0,0,0-1.3.46Z"/><path class="cls-10" d="M106.48,334.49a.66.66,0,0,1-.31-.31.57.57,0,0,1,0-.36.44.44,0,0,1,.22-.27.54.54,0,0,1,.44,0,.4.4,0,0,1,.27.28,1.14,1.14,0,0,1,.06.44.47.47,0,0,1-.19.33C106.84,334.64,106.68,334.62,106.48,334.49Zm0,1.93a.42.42,0,0,1,.1-.17.29.29,0,0,1,.19-.11.48.48,0,0,1,.26,0,1,1,0,0,1,.33.21l.37,4.94a.64.64,0,0,1-.18.38.37.37,0,0,1-.27.09.47.47,0,0,1-.25-.13.31.31,0,0,1-.12-.24Z"/><path class="cls-10" d="M109.87,341.58a4,4,0,0,1-.07-.5c0-.28-.06-.61-.1-1s-.08-.79-.12-1.23-.08-.85-.12-1.23-.08-.71-.11-1,0-.44,0-.5a2,2,0,0,1,.32-.11.28.28,0,0,1,.25.06.84.84,0,0,1,.2.35c.05.17.12.41.19.73a3.41,3.41,0,0,1,1.22-1.07,1.1,1.1,0,0,1,1,0,1.83,1.83,0,0,1,.72.78,6.68,6.68,0,0,1,.48,1.29,9,9,0,0,1,.26,1.51,11.85,11.85,0,0,1,0,1.44.3.3,0,0,1-.1.24.33.33,0,0,1-.2,0,1.06,1.06,0,0,1-.26-.1l-.25-.15c0-.13,0-.34-.06-.6s0-.56-.07-.87-.08-.64-.13-1a8.06,8.06,0,0,0-.19-.89,2,2,0,0,0-.29-.64.41.41,0,0,0-.4-.21,1.51,1.51,0,0,0-.94.44,1.8,1.8,0,0,0-.44.83,3.65,3.65,0,0,0-.1,1c0,.35,0,.68.07,1s0,.58.06.79,0,.34-.1.38l-.14.05-.21.08-.21.06C109.92,341.6,109.88,341.6,109.87,341.58Zm1.53-6.93a.74.74,0,0,0-.51-.19.75.75,0,0,0-.41.2,1.39,1.39,0,0,0-.32.39l-.23.39c-.23,0-.38-.09-.43-.23a.64.64,0,0,1,0-.47,1.75,1.75,0,0,1,.33-.53,2.31,2.31,0,0,1,.54-.45,1.5,1.5,0,0,1,.64-.2.93.93,0,0,1,.63.18,1.26,1.26,0,0,0,.5.54.85.85,0,0,0,.55.1.82.82,0,0,0,.47-.22.78.78,0,0,0,.25-.47c.3-.15.49-.15.58,0a.74.74,0,0,1,0,.6,1.33,1.33,0,0,1-.3.56,1.18,1.18,0,0,1-.56.36,1.5,1.5,0,0,1-.79,0A2.48,2.48,0,0,1,111.4,334.65Z"/><path class="cls-10" d="M115.58,340.72a3.29,3.29,0,0,1-.35-1.34,3.89,3.89,0,0,1,.16-1.33,4.1,4.1,0,0,1,.56-1.15,2.7,2.7,0,0,1,.86-.8,2,2,0,0,1,1-.28,1.89,1.89,0,0,1,1.09.42,1.39,1.39,0,0,1,.51.72,4.13,4.13,0,0,1,.17.93c0,.32,0,.62,0,.92a3.22,3.22,0,0,0,0,.67,1.45,1.45,0,0,0,.39.75,1.49,1.49,0,0,0,.46.27,2.81,2.81,0,0,1,.38.17c.1.05.15.18.13.39a.72.72,0,0,1-.56.24,1.71,1.71,0,0,1-.59-.11,4.08,4.08,0,0,1-.51-.23c-.15-.08-.25-.1-.3-.08-.3.18-.6.35-.91.51a2.8,2.8,0,0,1-.9.3,1.47,1.47,0,0,1-.87-.15A2,2,0,0,1,115.58,340.72Zm.83-2.88a4.16,4.16,0,0,0-.26,1.24,2.94,2.94,0,0,0,.15,1.08,1.14,1.14,0,0,0,.6.64,1.39,1.39,0,0,0,1.09-.1,1.14,1.14,0,0,0,.64-.7,2.72,2.72,0,0,0,.17-1.12,3.83,3.83,0,0,0-.21-1.16,1.77,1.77,0,0,0-.51-.81.73.73,0,0,0-.76-.08A2.18,2.18,0,0,0,116.41,337.84Z"/><path class="cls-10" d="M128.71,341.32a2.64,2.64,0,0,1-1.57.2,2.41,2.41,0,0,1-1.31-.7,3.28,3.28,0,0,1-.78-1.48,4.88,4.88,0,0,1,0-2.15,2.33,2.33,0,0,1,.8-1.27,1.68,1.68,0,0,1,1-.31,2.2,2.2,0,0,1,1,.3,2.93,2.93,0,0,1,.71.57.6.6,0,0,1,.18.52c-.05.14-.26.18-.62.11a1.93,1.93,0,0,0-1-.6,1,1,0,0,0-.77.16,1.53,1.53,0,0,0-.52.68,2.7,2.7,0,0,0-.21,1,2.76,2.76,0,0,0,.13,1,1.87,1.87,0,0,0,.53.86,1.89,1.89,0,0,0,1,.45,3.26,3.26,0,0,0,1.48-.17.71.71,0,0,1,.33.12.27.27,0,0,1,.13.21.34.34,0,0,1-.12.25A1.53,1.53,0,0,1,128.71,341.32Z"/><path class="cls-10" d="M131.77,341.3a1.86,1.86,0,0,1-.82-.38,3,3,0,0,1-.7-.75,4.59,4.59,0,0,1-.47-1,3.13,3.13,0,0,1-.17-1.08,2.67,2.67,0,0,1,.2-1,1.91,1.91,0,0,1,.65-.83,2.76,2.76,0,0,1,1.19-.48,5.51,5.51,0,0,1,1.82,0,2.11,2.11,0,0,1,1,.7,3.08,3.08,0,0,1,.58,1.14,3.45,3.45,0,0,1,.1,1.32,2.63,2.63,0,0,1-.48,1.23,2.67,2.67,0,0,1-1.11.88A3.69,3.69,0,0,1,131.77,341.3Zm1.17-4.76a2.47,2.47,0,0,0-1.27.08,1.61,1.61,0,0,0-.78.58,1.93,1.93,0,0,0-.3.89,2.53,2.53,0,0,0,.64,1.86,2,2,0,0,0,.88.55,2.7,2.7,0,0,0,1.4-.23,1.57,1.57,0,0,0,.71-.71,1.81,1.81,0,0,0,.14-1,3,3,0,0,0-.26-1,2.35,2.35,0,0,0-.53-.76A1,1,0,0,0,132.94,336.54Z"/><path class="cls-10" d="M137.61,341a3.44,3.44,0,0,1-1-1.16,3.77,3.77,0,0,1-.44-1.38,3.44,3.44,0,0,1,.15-1.36,2.34,2.34,0,0,1,1.93-1.66,3.46,3.46,0,0,1,1.74.21c.08-.06.11-.26.1-.61s0-.77-.08-1.24-.09-1-.13-1.48a9,9,0,0,1,0-1.34,1.74,1.74,0,0,1,.18-.82q.16-.24.57.09l1,10.67a1.26,1.26,0,0,1-.51.22.22.22,0,0,1-.25-.11.9.9,0,0,1,0-.4,3.89,3.89,0,0,1,.06-.62,4.34,4.34,0,0,1-.66.52,4.61,4.61,0,0,1-.85.45,3.29,3.29,0,0,1-.9.22A1.05,1.05,0,0,1,137.61,341Zm.52-.8a1.92,1.92,0,0,0,1.21-.09,1.73,1.73,0,0,0,.76-.65,2.07,2.07,0,0,0,.32-1,2.47,2.47,0,0,0-.1-1,2,2,0,0,0-.53-.83,1.43,1.43,0,0,0-.95-.37,2.3,2.3,0,0,0-1.05.18,1.43,1.43,0,0,0-.61.55,1.77,1.77,0,0,0-.23.8,2.5,2.5,0,0,0,.13.89,3.23,3.23,0,0,0,.4.84A2.4,2.4,0,0,0,138.13,340.19Z"/><path class="cls-10" d="M144.31,341a2.46,2.46,0,0,1-1.67-1.54,2.94,2.94,0,0,1-.19-1.07,4.24,4.24,0,0,1,.14-1.07,3.37,3.37,0,0,1,.41-1,2.27,2.27,0,0,1,.62-.68,3.75,3.75,0,0,1,1.75-.23,1.9,1.9,0,0,1,1,.47,1.06,1.06,0,0,1,.32.84,1.28,1.28,0,0,1-.42.89,2.49,2.49,0,0,1-1.17.61,4.74,4.74,0,0,1-1.93,0,2.11,2.11,0,0,0,.56,1.46,2,2,0,0,0,1.2.51,3.18,3.18,0,0,0,1.43-.23,3.59,3.59,0,0,0,1.27-.79,1.1,1.1,0,0,1,0,.78,1.3,1.3,0,0,1-.44.55,2.57,2.57,0,0,1-.73.33,4.63,4.63,0,0,1-.84.17,4.34,4.34,0,0,1-.8,0A2,2,0,0,1,144.31,341ZM146,337a1.09,1.09,0,0,0-.38-.53,1,1,0,0,0-.55-.2,1.47,1.47,0,0,0-.62.07,2,2,0,0,0-.56.28,1.45,1.45,0,0,0-.4.42.85.85,0,0,0-.13.5,2.6,2.6,0,0,0,.55.1,3.9,3.9,0,0,0,.76,0,3.27,3.27,0,0,0,.76-.2A1.13,1.13,0,0,0,146,337Z"/><path class="cls-10" d="M149.46,338.7a.91.91,0,0,1-.32-.51c0-.17.08-.3.31-.39l3.09-.36c.29.05.43.16.44.34a.72.72,0,0,1-.33.56l-.62.08-1,.12-1,.1Z"/><path class="cls-10" d="M154.84,339.73a3.29,3.29,0,0,1-.35-1.34,3.89,3.89,0,0,1,.16-1.33,4.1,4.1,0,0,1,.56-1.15,2.82,2.82,0,0,1,.86-.8,2,2,0,0,1,1-.28,1.89,1.89,0,0,1,1.09.42,1.39,1.39,0,0,1,.51.72,4.23,4.23,0,0,1,.17.93c0,.32,0,.63,0,.92a3.18,3.18,0,0,0,0,.67,1.45,1.45,0,0,0,.39.75,1.49,1.49,0,0,0,.46.27,2.81,2.81,0,0,1,.38.17c.1.05.15.18.13.39a.76.76,0,0,1-.56.25,2,2,0,0,1-.59-.12,3.51,3.51,0,0,1-.51-.23c-.15-.08-.25-.1-.3-.08-.3.18-.6.35-.91.51a2.8,2.8,0,0,1-.9.3,1.47,1.47,0,0,1-.87-.15A2,2,0,0,1,154.84,339.73Zm.83-2.87a4.1,4.1,0,0,0-.26,1.24,2.92,2.92,0,0,0,.15,1.07,1.11,1.11,0,0,0,.6.64,1.39,1.39,0,0,0,1.09-.1,1.14,1.14,0,0,0,.64-.7,2.7,2.7,0,0,0,.17-1.11,3.84,3.84,0,0,0-.21-1.17,1.77,1.77,0,0,0-.51-.81.76.76,0,0,0-.76-.08A2.16,2.16,0,0,0,155.67,336.86Z"/><path class="cls-10" d="M162.2,340.48a3.56,3.56,0,0,1-1.46-2.54,3.33,3.33,0,0,1,.14-1.37,2.5,2.5,0,0,1,.7-1.08,2.43,2.43,0,0,1,1.23-.57,3.56,3.56,0,0,1,1.74.2c.08-.05.12-.26.1-.61s0-.76-.08-1.23-.08-1-.13-1.48a10.63,10.63,0,0,1,0-1.34,1.7,1.7,0,0,1,.19-.82c.11-.16.29-.13.56.09l1,10.66a1.31,1.31,0,0,1-.51.23.2.2,0,0,1-.24-.11.79.79,0,0,1-.06-.4,3.89,3.89,0,0,1,.06-.62,3.89,3.89,0,0,1-.66.52,4.31,4.31,0,0,1-.85.45,3,3,0,0,1-.89.21A1.08,1.08,0,0,1,162.2,340.48Zm.52-.8a2,2,0,0,0,1.21-.09,1.76,1.76,0,0,0,.77-.65,2.28,2.28,0,0,0,.32-1,2.65,2.65,0,0,0-.11-1,1.91,1.91,0,0,0-.53-.83,1.42,1.42,0,0,0-.94-.37,2.38,2.38,0,0,0-1.06.18,1.49,1.49,0,0,0-.61.55,1.65,1.65,0,0,0-.22.8,2.64,2.64,0,0,0,.12.88,3.17,3.17,0,0,0,.41.85A2.37,2.37,0,0,0,162.72,339.68Z"/><path class="cls-10" d="M167.59,339.5a3.15,3.15,0,0,1-.36-1.33,4.21,4.21,0,0,1,.16-1.34,4,4,0,0,1,.57-1.15,2.83,2.83,0,0,1,.86-.8,1.87,1.87,0,0,1,1-.27,1.83,1.83,0,0,1,1.09.41,1.4,1.4,0,0,1,.5.73,4.13,4.13,0,0,1,.17.93c0,.31,0,.62,0,.91a2.59,2.59,0,0,0,0,.67,1.38,1.38,0,0,0,.38.75,1.82,1.82,0,0,0,.47.28,2.29,2.29,0,0,1,.38.16c.1.06.14.19.12.4a.7.7,0,0,1-.55.24,2.06,2.06,0,0,1-.6-.12,3.39,3.39,0,0,1-.5-.22c-.15-.08-.25-.11-.3-.08l-.91.5a2.81,2.81,0,0,1-.91.31,1.53,1.53,0,0,1-.86-.15A2,2,0,0,1,167.59,339.5Zm.82-2.87a4.15,4.15,0,0,0-.25,1.24,2.57,2.57,0,0,0,.15,1.08,1.1,1.1,0,0,0,.6.63,1.43,1.43,0,0,0,1.09-.09,1.18,1.18,0,0,0,.63-.71,2.88,2.88,0,0,0,.18-1.11,3.78,3.78,0,0,0-.21-1.16,1.7,1.7,0,0,0-.52-.81.71.71,0,0,0-.75-.09A2.28,2.28,0,0,0,168.41,336.63Z"/><path class="cls-10" d="M85.09,291.66c-.3,0-.57,0-.83,0a.3.3,0,0,1-.34-.31c0-.37-.1-.72-.14-1.09a7.81,7.81,0,0,1-.11-1.28,13.07,13.07,0,0,1,0-2.34.84.84,0,0,0,0-.3l-1.36.07c0-.31-.11-.59-.17-.91a3,3,0,0,1,.38-.09l3.2-.18c.46,0,.58.09.61.55a3.87,3.87,0,0,1,0,.45c-.24,0-.49.1-.74.12s-.48,0-.72,0c.06.66,0,1.27.13,1.89a16.52,16.52,0,0,1,.13,2c0,.38.06.75.09,1.13A1.19,1.19,0,0,1,85.09,291.66Z"/><path class="cls-10" d="M93.7,289a2.41,2.41,0,0,1-.48,1.3,2.91,2.91,0,0,1-1.62,1.33,3.45,3.45,0,0,1-1.47.13,3.59,3.59,0,0,1-1.59-.51,2,2,0,0,1-.77-.86c-.19-.41-.35-.82-.51-1.23a1.65,1.65,0,0,1-.07-.32A2.82,2.82,0,0,1,88.8,286a3.48,3.48,0,0,1,1.53-.48,3.19,3.19,0,0,1,3.08,1.89,1.24,1.24,0,0,1,.1.31A12.36,12.36,0,0,1,93.7,289Zm-2.45-2.29a1.73,1.73,0,0,0-1.19-.14,2.26,2.26,0,0,0-1.79,1.95,1.72,1.72,0,0,0,.27,1.08,1.77,1.77,0,0,0,1.6,1.11,2.77,2.77,0,0,0,1.6-.49,1.34,1.34,0,0,0,.67-.92,5.14,5.14,0,0,0,.08-.88A1.91,1.91,0,0,0,91.25,286.75Z"/><path class="cls-10" d="M100.72,288.91c0,.58,0,1.16,0,1.73a.72.72,0,0,1-.44.78l-.27.14a26.19,26.19,0,0,1-2-1.91c-.68-.61-1.32-1.25-2-1.94,0,1.41.3,2.73.19,4.08a1.63,1.63,0,0,1-1,.06c-.07,0-.17-.17-.18-.27a6,6,0,0,1-.07-.85l-.18-3.89a.48.48,0,0,0,0-.12c-.16-.54.1-.85.59-1.06l4.15,3.83c0-.41,0-.75-.06-1.09,0-.79-.11-1.58-.16-2.38,0-.38,0-.42.39-.44h.21c.55,0,.63.12.65.68s.08.86.11,1.29S100.71,288.45,100.72,288.91Z"/><path class="cls-10" d="M102,285.18a.72.72,0,1,1,1.42-.07.67.67,0,0,1-.67.66A.71.71,0,0,1,102,285.18Zm1.72,6.21c0,.1-.11.24-.18.25a7.73,7.73,0,0,1-1,.06c-.16,0-.19-.17-.19-.31,0-.73-.07-1.46-.06-2.18a8.76,8.76,0,0,0-.09-1.62,7.15,7.15,0,0,1,0-.82l.85-.12c.21,0,.29.08.3.28,0,.67.12,1.34.18,2s.13,1.37.19,2.05A1.34,1.34,0,0,1,103.7,291.39Z"/><path class="cls-10" d="M110.66,291.59l-.59,0c0-.26-.09-.49-.15-.77l-.66.37a2.8,2.8,0,0,1-1.89.41,1.65,1.65,0,0,1-.32-.07,5.45,5.45,0,0,1-1.62-1,2.37,2.37,0,0,1-.74-1.9,3.87,3.87,0,0,1,.38-1.64,3.18,3.18,0,0,1,1.7-1.55,2.81,2.81,0,0,1,2.91.29l.83.64-.59.64-.54-.42a2.37,2.37,0,0,0-1.67-.58,2.22,2.22,0,0,0-1.38.78,2.16,2.16,0,0,0-.6,1.79,1.63,1.63,0,0,0,.16.53c.1.23.25.45.37.67a1.74,1.74,0,0,0,1.54.81.48.48,0,0,0,.12,0,1.64,1.64,0,0,0,1.59-.84c.1-.14.23-.27.32-.42a.37.37,0,0,0,0-.29c0-.05-.15-.07-.24-.08h-.54l0-.67a6.18,6.18,0,0,1,1.72,0A12.37,12.37,0,0,1,110.66,291.59Z"/><path class="cls-10" d="M112.09,285.65a7.5,7.5,0,0,1,.8,0c.19,0,.29.16.3.36,0,.41.07.81.11,1.21s.1.61.15.92a16.74,16.74,0,0,0,2.12-.22c0-.15,0-.27,0-.39,0-.51,0-1,0-1.54s.12-.53.5-.52a6.71,6.71,0,0,1,.71.1c0,.5.08,1,.07,1.44a36.69,36.69,0,0,0,.26,4.32c0,.3,0,.41-.37.43a1.31,1.31,0,0,1-.28,0,.45.45,0,0,1-.47-.4c-.06-.39-.12-.78-.16-1.16s0-.76-.06-1.15a5.35,5.35,0,0,0-2.19.09l.14,2.71a4.17,4.17,0,0,1-1,.1.23.23,0,0,1-.24-.27c0-.2,0-.4,0-.6,0-.69-.11-1.38-.15-2.06-.05-.89-.09-1.78-.13-2.67Z"/><path class="cls-10" d="M120.11,291.86h-.83c-.21,0-.32-.09-.34-.31s-.1-.72-.14-1.08a7.9,7.9,0,0,1-.11-1.28,13.06,13.06,0,0,1,0-2.34,1.16,1.16,0,0,0,0-.3l-1.36.07c-.06-.31-.11-.59-.17-.91a2.62,2.62,0,0,1,.38-.09l3.2-.18c.45,0,.58.09.6.54a3.71,3.71,0,0,1,0,.46c-.25,0-.5.1-.74.12s-.48,0-.73,0a18.65,18.65,0,0,0,.14,1.88,16.81,16.81,0,0,1,.12,2c0,.38.07.75.1,1.13A1.64,1.64,0,0,1,120.11,291.86Z"/><path class="cls-10" d="M127.13,291.09a1.62,1.62,0,0,1-2,.66c-.52-.22-.93-.59-1.42-.84a.23.23,0,0,1-.08-.35c.13-.2.28-.39.44-.61.47.26.88.5,1.3.72a.66.66,0,0,0,.69,0,.45.45,0,0,0,.23-.58,1.17,1.17,0,0,0-.5-.62c-.35-.2-.7-.4-1-.62a3.8,3.8,0,0,1-1.15-1,1,1,0,0,1,0-1,1.84,1.84,0,0,1,1.84-1.06,3.69,3.69,0,0,1,2,.88l-.5.69c-.42-.2-.82-.4-1.23-.56a.56.56,0,0,0-.75.19.54.54,0,0,0,.11.84,3,3,0,0,0,.49.28,11.77,11.77,0,0,1,1.29.83A1.64,1.64,0,0,1,127.13,291.09Z"/><path class="cls-10" d="M135.43,290.8a1.62,1.62,0,0,1-2,.66c-.52-.22-.93-.59-1.42-.84a.23.23,0,0,1-.08-.35c.13-.2.28-.39.44-.61l1.3.72a.66.66,0,0,0,.69,0,.44.44,0,0,0,.23-.57,1.14,1.14,0,0,0-.5-.62l-1-.62a3.8,3.8,0,0,1-1.15-1,1,1,0,0,1-.05-1,1.84,1.84,0,0,1,1.84-1.06,3.68,3.68,0,0,1,2,.87l-.5.7c-.42-.2-.82-.4-1.22-.57a.58.58,0,0,0-.76.2.54.54,0,0,0,.11.84,3.9,3.9,0,0,0,.49.28,11.77,11.77,0,0,1,1.29.83A1.64,1.64,0,0,1,135.43,290.8Z"/><path class="cls-10" d="M140.26,288.19a1.21,1.21,0,0,1-.71.74,3.6,3.6,0,0,1-1.33.32,1.38,1.38,0,0,0-.26,0l.12,2.43-1.07,0a3.19,3.19,0,0,1-.16-.7c0-1.1,0-2.19-.06-3.29,0-.55-.09-1.1-.13-1.65,0-.14,0-.27,0-.4a5.32,5.32,0,0,1,2.1-.06,1.59,1.59,0,0,1,1.24.8A2.17,2.17,0,0,1,140.26,288.19ZM139,286.81a1.55,1.55,0,0,0-1.25-.17c0,.08,0,.14,0,.21,0,.52.1,1,.15,1.62a7.13,7.13,0,0,0,1-.23.77.77,0,0,0,.54-.68A.74.74,0,0,0,139,286.81Z"/><path class="cls-10" d="M143.44,286.67l-1.15.05a8.17,8.17,0,0,0,.13,1.29l.91,0a3,3,0,0,1,.07.3c0,.53,0,.53-.49.63a3.57,3.57,0,0,0-.35.1,4.34,4.34,0,0,0,0,1.69l.94-.05a2.11,2.11,0,0,1,.11.91,5.05,5.05,0,0,1-2,.21c0-.25-.09-.51-.11-.77-.08-1.38-.14-2.75-.21-4.13,0-.26,0-.51,0-.77s0-.36.33-.38c.5,0,1-.1,1.49-.13.33,0,.37,0,.38.36S143.44,286.39,143.44,286.67Z"/><path class="cls-10" d="M145.82,288.67a1.11,1.11,0,0,0,.23.88,2.62,2.62,0,0,0,1.85,1,2.18,2.18,0,0,0,1.7-.64,1.3,1.3,0,0,1,.6.7,2.31,2.31,0,0,1-.89.66,6.17,6.17,0,0,1-1.4.38A2.33,2.33,0,0,1,146,291a3.8,3.8,0,0,1-1.07-1.6,2,2,0,0,1-.06-1.31c.15-.46.26-.93.43-1.39a1.73,1.73,0,0,1,.86-.93,3.82,3.82,0,0,1,1-.46,1.91,1.91,0,0,1,1.11,0c.34.12.71.17,1,.31a3.87,3.87,0,0,1,.75.46c.17.12.14.27,0,.42s-.21.28-.3.4c-.5-.2-.89-.38-1.29-.52a1.52,1.52,0,0,0-1.25.08A2.73,2.73,0,0,0,145.82,288.67Z"/><path class="cls-10" d="M151.47,285.54a.86.86,0,0,1,.72-.84.87.87,0,0,1,.71.78.68.68,0,0,1-.68.66A.72.72,0,0,1,151.47,285.54Zm1.72,6.22c0,.1-.1.24-.18.25a7.46,7.46,0,0,1-.95.06c-.17,0-.19-.17-.2-.31,0-.73-.06-1.46-.05-2.19a9.66,9.66,0,0,0-.09-1.61c0-.26,0-.53-.05-.82l.86-.12c.21,0,.28.08.3.28q.07,1,.18,2c.06.68.13,1.37.19,2.05A1.32,1.32,0,0,1,153.19,291.76Z"/><path class="cls-10" d="M159.72,291.33c-.22.11-.42.23-.63.31s-.39.06-.53-.19-.41-.78-.61-1.18l-.21-.42-1.76.22c-.32.64-.62,1.22-.92,1.81a1.27,1.27,0,0,1-.78-.39.35.35,0,0,1-.07-.32,4.32,4.32,0,0,1,.26-.68c.62-1.39,1.25-2.78,1.87-4.18a3.49,3.49,0,0,0,.2-.44c.08-.24.25-.28.47-.3a.4.4,0,0,1,.42.31l1.29,3.06c.28.67.56,1.34.85,2Zm-2.29-2.28-.28-.64c-.08-.22-.17-.44-.25-.65h-.08c-.18.44-.36.88-.57,1.36Z"/><path class="cls-10" d="M164,291.75c-.28.3-2.08.08-2.38.12s-.61,0-.93.05a.52.52,0,0,1-.08-.2c0-.72-.07-1.43-.12-2.15s-.12-1.26-.18-1.89c0-.38,0-.75-.05-1.13s0-.57,0-.85a.31.31,0,0,1,.3-.36c.72-.06.8-.06.84.65l.21,4.26,0,.46h2.28A4.62,4.62,0,0,1,164,291.75Z"/><polygon class="cls-10" points="122.18 286.19 122.46 283.6 123.75 284.06 122.66 286.25 122.18 286.19"/><polygon class="cls-3" points="185.88 358.83 92.69 360.22 73.23 273.71 166.41 273.71 185.88 358.83"/><polyline class="cls-3" points="73.23 273.71 62.06 357.63 73.84 357.63 76.7 340.74 87.23 340.74"/><line class="cls-3" x1="92.69" y1="298.57" x2="157.44" y2="298.57"/><path class="cls-10" d="M216.84,119.49v-1.32h7.88v1.32h-3.18v8.86H220v-8.86Z"/><path class="cls-10" d="M227.82,123.82v4.53h-1.49V118.17h1.47V122h.1a2.12,2.12,0,0,1,.82-1,2.56,2.56,0,0,1,1.44-.36,2.86,2.86,0,0,1,1.37.32,2.25,2.25,0,0,1,.92,1,3.62,3.62,0,0,1,.32,1.6v4.85h-1.48v-4.67a1.85,1.85,0,0,0-.44-1.31,1.55,1.55,0,0,0-1.2-.46,2,2,0,0,0-.94.22,1.57,1.57,0,0,0-.65.65A2.13,2.13,0,0,0,227.82,123.82Z"/><path class="cls-10" d="M238.05,128.51a3.66,3.66,0,0,1-1.94-.49,3.23,3.23,0,0,1-1.25-1.36,5.09,5.09,0,0,1,0-4.14,3.35,3.35,0,0,1,1.23-1.4,3.45,3.45,0,0,1,1.86-.5,3.77,3.77,0,0,1,1.25.21,3,3,0,0,1,1.09.67,3.25,3.25,0,0,1,.76,1.19,4.83,4.83,0,0,1,.28,1.77V125h-6.07v-1.11h4.61a2.19,2.19,0,0,0-.24-1,1.86,1.86,0,0,0-.67-.72,1.82,1.82,0,0,0-1-.26,2,2,0,0,0-1.09.3,2.13,2.13,0,0,0-.72.8,2.24,2.24,0,0,0-.25,1.06v.87a2.87,2.87,0,0,0,.27,1.3,1.89,1.89,0,0,0,.76.82,2.19,2.19,0,0,0,1.14.28,2.35,2.35,0,0,0,.77-.12,1.62,1.62,0,0,0,1-1l1.4.26a2.51,2.51,0,0,1-.6,1.08,2.89,2.89,0,0,1-1.09.72A4,4,0,0,1,238.05,128.51Z"/><path class="cls-10" d="M243,128.35v-7.63h1.44v1.21h.08a1.89,1.89,0,0,1,.74-1,2.07,2.07,0,0,1,1.2-.36h.33l.3,0v1.42a1.82,1.82,0,0,0-.32-.06,3.4,3.4,0,0,0-.45,0,1.89,1.89,0,0,0-.94.22,1.66,1.66,0,0,0-.89,1.5v4.66Z"/><path class="cls-10" d="M251.38,128.51a3.69,3.69,0,0,1-1.95-.49,3.29,3.29,0,0,1-1.25-1.36,5.09,5.09,0,0,1,0-4.14,3.5,3.5,0,0,1,1.23-1.4,3.45,3.45,0,0,1,1.86-.5,3.77,3.77,0,0,1,1.25.21,3,3,0,0,1,1.09.67,3.13,3.13,0,0,1,.76,1.19,4.83,4.83,0,0,1,.28,1.77V125h-6.07v-1.11h4.62a2.19,2.19,0,0,0-.24-1,1.8,1.8,0,0,0-1.68-1,2,2,0,0,0-1.09.3,2.13,2.13,0,0,0-.72.8,2.36,2.36,0,0,0-.25,1.06v.87a2.87,2.87,0,0,0,.27,1.3,2,2,0,0,0,.76.82,2.24,2.24,0,0,0,1.14.28,2.35,2.35,0,0,0,.77-.12,1.62,1.62,0,0,0,1-1l1.41.26a2.53,2.53,0,0,1-.61,1.08,2.93,2.93,0,0,1-1.08.72A4.12,4.12,0,0,1,251.38,128.51Z"/><path class="cls-10" d="M257.59,118.17v1a2.88,2.88,0,0,1-.16.88,3.75,3.75,0,0,1-.44.9,3.12,3.12,0,0,1-.67.73l-.73-.52a7.33,7.33,0,0,0,.51-.91,2.69,2.69,0,0,0,.21-1.07v-1Z"/><path class="cls-10" d="M263.79,122.58l-1.35.24a1.69,1.69,0,0,0-.27-.49,1.27,1.27,0,0,0-.49-.38,1.73,1.73,0,0,0-.77-.15,1.83,1.83,0,0,0-1.05.28.85.85,0,0,0-.42.72.76.76,0,0,0,.28.62,2.38,2.38,0,0,0,.91.38l1.22.28a3.25,3.25,0,0,1,1.57.75,1.79,1.79,0,0,1,.51,1.32,2,2,0,0,1-.39,1.22,2.61,2.61,0,0,1-1.1.83,4,4,0,0,1-1.63.31,3.71,3.71,0,0,1-2.09-.55,2.3,2.3,0,0,1-1-1.56l1.43-.22a1.39,1.39,0,0,0,.55.84,1.9,1.9,0,0,0,1.09.29A2,2,0,0,0,262,127a.89.89,0,0,0,.44-.74.8.8,0,0,0-.27-.61,1.75,1.75,0,0,0-.81-.36L260,125a3.08,3.08,0,0,1-1.58-.77,1.89,1.89,0,0,1-.51-1.35,1.85,1.85,0,0,1,.38-1.18,2.49,2.49,0,0,1,1-.8,3.83,3.83,0,0,1,1.53-.28,3.24,3.24,0,0,1,2,.53A2.61,2.61,0,0,1,263.79,122.58Z"/><path class="cls-10" d="M270.76,123.82v4.53h-1.49v-7.63h1.43V122h.1a2.15,2.15,0,0,1,.82-1,2.53,2.53,0,0,1,1.43-.37,2.82,2.82,0,0,1,1.36.32,2.14,2.14,0,0,1,.91,1,3.46,3.46,0,0,1,.33,1.59v4.85h-1.49v-4.67a1.82,1.82,0,0,0-.43-1.3,1.52,1.52,0,0,0-1.19-.47,1.87,1.87,0,0,0-.92.22,1.71,1.71,0,0,0-.63.65A2.25,2.25,0,0,0,270.76,123.82Z"/><path class="cls-10" d="M280.85,128.51A3.57,3.57,0,0,1,279,128a3.32,3.32,0,0,1-1.24-1.38,4.51,4.51,0,0,1-.45-2.07,4.58,4.58,0,0,1,.45-2.08,3.32,3.32,0,0,1,1.24-1.38,3.48,3.48,0,0,1,1.87-.49,3.51,3.51,0,0,1,1.88.49,3.32,3.32,0,0,1,1.24,1.38,4.58,4.58,0,0,1,.44,2.08,4.51,4.51,0,0,1-.44,2.07,3.32,3.32,0,0,1-1.24,1.38A3.61,3.61,0,0,1,280.85,128.51Zm0-1.25a1.75,1.75,0,0,0,1.15-.37,2.12,2.12,0,0,0,.68-1,3.81,3.81,0,0,0,.22-1.34,3.9,3.9,0,0,0-.22-1.35,2.2,2.2,0,0,0-.68-1,2,2,0,0,0-2.31,0,2.13,2.13,0,0,0-.68,1,3.9,3.9,0,0,0-.23,1.35,3.8,3.8,0,0,0,.23,1.34,2,2,0,0,0,.68,1A1.75,1.75,0,0,0,280.86,127.26Z"/><path class="cls-10" d="M295.5,122.58l-1.35.24a1.45,1.45,0,0,0-.26-.49,1.44,1.44,0,0,0-.49-.38,1.79,1.79,0,0,0-.77-.15,1.84,1.84,0,0,0-1.06.28.85.85,0,0,0-.42.72.76.76,0,0,0,.28.62,2.44,2.44,0,0,0,.92.38l1.21.28a3.2,3.2,0,0,1,1.57.75,1.76,1.76,0,0,1,.52,1.32,2,2,0,0,1-.4,1.22,2.61,2.61,0,0,1-1.1.83,3.94,3.94,0,0,1-1.62.31,3.72,3.72,0,0,1-2.1-.55,2.3,2.3,0,0,1-1-1.56l1.44-.22a1.31,1.31,0,0,0,.55.84,1.9,1.9,0,0,0,1.09.29,1.94,1.94,0,0,0,1.16-.31.87.87,0,0,0,.44-.74.83.83,0,0,0-.26-.61,1.79,1.79,0,0,0-.82-.36l-1.29-.29a3.12,3.12,0,0,1-1.58-.77,1.89,1.89,0,0,1-.51-1.35,1.92,1.92,0,0,1,.38-1.18,2.49,2.49,0,0,1,1-.8,3.9,3.9,0,0,1,1.53-.28,3.2,3.2,0,0,1,1.95.53A2.55,2.55,0,0,1,295.5,122.58Z"/><path class="cls-10" d="M302.12,125.19v-4.47h1.49v7.63h-1.46V127h-.08a2.39,2.39,0,0,1-.85,1,2.42,2.42,0,0,1-1.44.4,2.53,2.53,0,0,1-1.3-.32,2.25,2.25,0,0,1-.88-1,3.6,3.6,0,0,1-.32-1.59v-4.85h1.49v4.68a1.73,1.73,0,0,0,.43,1.24,1.46,1.46,0,0,0,1.12.46,1.79,1.79,0,0,0,.83-.21,1.83,1.83,0,0,0,.7-.63A2,2,0,0,0,302.12,125.19Z"/><path class="cls-10" d="M308.82,128.51a3.47,3.47,0,0,1-1.91-.51,3.24,3.24,0,0,1-1.22-1.39,4.57,4.57,0,0,1-.43-2,4.48,4.48,0,0,1,.44-2,3.35,3.35,0,0,1,1.23-1.4,3.46,3.46,0,0,1,1.87-.5,3.64,3.64,0,0,1,1.55.32,2.8,2.8,0,0,1,1.11.9,2.75,2.75,0,0,1,.49,1.34h-1.44a1.73,1.73,0,0,0-.55-.92,1.6,1.6,0,0,0-1.13-.39,1.83,1.83,0,0,0-1.09.33,2,2,0,0,0-.72.92,3.6,3.6,0,0,0-.26,1.42A3.74,3.74,0,0,0,307,126a2.16,2.16,0,0,0,.72.94,1.86,1.86,0,0,0,1.1.33,1.77,1.77,0,0,0,.77-.16,1.5,1.5,0,0,0,.58-.45,1.89,1.89,0,0,0,.33-.7H312a2.77,2.77,0,0,1-.48,1.32,2.83,2.83,0,0,1-1.07.92A3.57,3.57,0,0,1,308.82,128.51Z"/><path class="cls-10" d="M315,123.82v4.53h-1.49V118.17H315V122h.09a2.18,2.18,0,0,1,.82-1,2.6,2.6,0,0,1,1.44-.36,2.87,2.87,0,0,1,1.38.32,2.22,2.22,0,0,1,.91,1,3.48,3.48,0,0,1,.33,1.6v4.85H318.5v-4.67a1.85,1.85,0,0,0-.43-1.31,1.56,1.56,0,0,0-1.2-.46,2,2,0,0,0-.95.22,1.69,1.69,0,0,0-.65.65A2.25,2.25,0,0,0,315,123.82Z"/><path class="cls-10" d="M327.91,128.52a3.07,3.07,0,0,1-1.31-.27,2.17,2.17,0,0,1-.93-.79,2.2,2.2,0,0,1-.34-1.26,2,2,0,0,1,.25-1.07,1.77,1.77,0,0,1,.67-.66,3.76,3.76,0,0,1,.94-.37c.35-.08.71-.14,1.07-.19l1.11-.13a1.5,1.5,0,0,0,.62-.17.43.43,0,0,0,.2-.39v0a1.36,1.36,0,0,0-.37-1,1.49,1.49,0,0,0-1.09-.36,1.9,1.9,0,0,0-1.18.33,1.85,1.85,0,0,0-.59.74l-1.4-.32a2.74,2.74,0,0,1,.73-1.13,2.89,2.89,0,0,1,1.11-.62,4,4,0,0,1,1.31-.2,4.33,4.33,0,0,1,1,.11,2.86,2.86,0,0,1,1,.39,2.05,2.05,0,0,1,.74.8,2.86,2.86,0,0,1,.29,1.36v5.07h-1.45v-1h-.06a2.19,2.19,0,0,1-.44.57,2.34,2.34,0,0,1-.74.46A2.91,2.91,0,0,1,327.91,128.52Zm.32-1.19a2.18,2.18,0,0,0,1.06-.24,1.8,1.8,0,0,0,.67-.64,1.72,1.72,0,0,0,.23-.85v-1a.69.69,0,0,1-.31.14,3.19,3.19,0,0,1-.51.12l-.56.08-.46.06a3.66,3.66,0,0,0-.79.19,1.31,1.31,0,0,0-.56.37.93.93,0,0,0-.21.64,1,1,0,0,0,.4.83A1.77,1.77,0,0,0,328.23,127.33Z"/><path class="cls-10" d="M336.51,128.5a2.89,2.89,0,0,1-1.64-.47,3.2,3.2,0,0,1-1.14-1.36,5,5,0,0,1-.41-2.12,4.92,4.92,0,0,1,.42-2.12,3.07,3.07,0,0,1,1.14-1.34,2.89,2.89,0,0,1,1.64-.47,2.5,2.5,0,0,1,1.15.23,2.27,2.27,0,0,1,.68.55,4.84,4.84,0,0,1,.37.56h.09v-3.79h1.49v10.18h-1.45v-1.18h-.13a5.07,5.07,0,0,1-.38.55,2.29,2.29,0,0,1-.69.55A2.36,2.36,0,0,1,336.51,128.5Zm.33-1.26a1.79,1.79,0,0,0,1.09-.34,2.08,2.08,0,0,0,.67-1,3.86,3.86,0,0,0,.24-1.41,4,4,0,0,0-.23-1.4,2.24,2.24,0,0,0-.67-.93,2,2,0,0,0-2.22,0,2.16,2.16,0,0,0-.67,1,3.84,3.84,0,0,0-.23,1.36,3.9,3.9,0,0,0,.23,1.37,2.24,2.24,0,0,0,.68,1A1.72,1.72,0,0,0,336.84,127.24Z"/><path class="cls-10" d="M345.27,128.5a2.89,2.89,0,0,1-1.64-.47,3.2,3.2,0,0,1-1.14-1.36,5,5,0,0,1-.41-2.12,4.92,4.92,0,0,1,.42-2.12,3.07,3.07,0,0,1,1.14-1.34,2.89,2.89,0,0,1,1.64-.47,2.5,2.5,0,0,1,1.15.23,2.27,2.27,0,0,1,.68.55,4.84,4.84,0,0,1,.37.56h.09v-3.79h1.49v10.18h-1.45v-1.18h-.13a5.07,5.07,0,0,1-.38.55,2.29,2.29,0,0,1-.69.55A2.36,2.36,0,0,1,345.27,128.5Zm.33-1.26a1.79,1.79,0,0,0,1.09-.34,2.16,2.16,0,0,0,.67-1,3.86,3.86,0,0,0,.24-1.41,4,4,0,0,0-.23-1.4,2.24,2.24,0,0,0-.67-.93,2,2,0,0,0-2.22,0,2.08,2.08,0,0,0-.67,1,3.84,3.84,0,0,0-.23,1.36,3.9,3.9,0,0,0,.23,1.37,2.16,2.16,0,0,0,.68,1A1.72,1.72,0,0,0,345.6,127.24Z"/><path class="cls-10" d="M351.18,128.35v-7.63h1.43v1.21h.08a1.89,1.89,0,0,1,.74-1,2.07,2.07,0,0,1,1.2-.36H355l.3,0v1.42a1.82,1.82,0,0,0-.32-.06,3.4,3.4,0,0,0-.45,0,1.89,1.89,0,0,0-.94.22,1.73,1.73,0,0,0-.65.61,1.67,1.67,0,0,0-.24.89v4.66Z"/><path class="cls-10" d="M359.57,128.51a3.63,3.63,0,0,1-1.94-.49,3.25,3.25,0,0,1-1.26-1.36,5.09,5.09,0,0,1,0-4.14,3.45,3.45,0,0,1,1.24-1.4,3.39,3.39,0,0,1,1.85-.5,3.87,3.87,0,0,1,1.26.21,3.06,3.06,0,0,1,1.08.67,3.15,3.15,0,0,1,.77,1.19,5.07,5.07,0,0,1,.27,1.77V125h-6.07v-1.11h4.62a2.19,2.19,0,0,0-.24-1,1.8,1.8,0,0,0-1.68-1,2,2,0,0,0-1.09.3,2,2,0,0,0-.71.8,2.25,2.25,0,0,0-.26,1.06v.87a2.74,2.74,0,0,0,.28,1.3,1.93,1.93,0,0,0,.75.82,2.24,2.24,0,0,0,1.14.28,2.35,2.35,0,0,0,.77-.12,1.48,1.48,0,0,0,.6-.37,1.56,1.56,0,0,0,.39-.6l1.41.26a2.53,2.53,0,0,1-.61,1.08,2.93,2.93,0,0,1-1.08.72A4.12,4.12,0,0,1,359.57,128.51Z"/><path class="cls-10" d="M370.22,122.58l-1.35.24a1.45,1.45,0,0,0-.26-.49,1.35,1.35,0,0,0-.49-.38,1.76,1.76,0,0,0-.77-.15,1.88,1.88,0,0,0-1.06.28.85.85,0,0,0-.42.72.79.79,0,0,0,.28.62,2.44,2.44,0,0,0,.92.38l1.21.28a3.2,3.2,0,0,1,1.57.75,1.76,1.76,0,0,1,.52,1.32,2,2,0,0,1-.39,1.22,2.68,2.68,0,0,1-1.1.83,4,4,0,0,1-1.63.31,3.68,3.68,0,0,1-2.09-.55,2.28,2.28,0,0,1-1-1.56l1.44-.22a1.35,1.35,0,0,0,.55.84,1.9,1.9,0,0,0,1.09.29,2,2,0,0,0,1.17-.31.88.88,0,0,0,.43-.74.8.8,0,0,0-.26-.61,1.8,1.8,0,0,0-.81-.36l-1.3-.29a3.12,3.12,0,0,1-1.58-.77,1.89,1.89,0,0,1-.51-1.35,1.92,1.92,0,0,1,.38-1.18,2.46,2.46,0,0,1,1.05-.8,3.82,3.82,0,0,1,1.52-.28,3.2,3.2,0,0,1,1.95.53A2.5,2.5,0,0,1,370.22,122.58Z"/><path class="cls-10" d="M377.72,122.58l-1.34.24a1.69,1.69,0,0,0-.27-.49,1.27,1.27,0,0,0-.49-.38,1.76,1.76,0,0,0-.77-.15,1.83,1.83,0,0,0-1.05.28.83.83,0,0,0-.43.72.77.77,0,0,0,.29.62,2.38,2.38,0,0,0,.91.38l1.21.28a3.24,3.24,0,0,1,1.58.75,1.79,1.79,0,0,1,.51,1.32,2,2,0,0,1-.39,1.22,2.68,2.68,0,0,1-1.1.83,4,4,0,0,1-1.63.31,3.71,3.71,0,0,1-2.09-.55,2.35,2.35,0,0,1-1-1.56l1.44-.22a1.35,1.35,0,0,0,.55.84,1.9,1.9,0,0,0,1.09.29,2,2,0,0,0,1.17-.31.89.89,0,0,0,.44-.74.8.8,0,0,0-.27-.61,1.8,1.8,0,0,0-.81-.36L374,125a3.08,3.08,0,0,1-1.58-.77,2.05,2.05,0,0,1-.14-2.53,2.52,2.52,0,0,1,1.05-.8,3.82,3.82,0,0,1,1.52-.28,3.2,3.2,0,0,1,1.95.53A2.5,2.5,0,0,1,377.72,122.58Z"/><path class="cls-10" d="M381.44,127l-.08.54a8.64,8.64,0,0,1-.25,1.25q-.18.65-.36,1.2l-.31.89h-1.05c0-.21.1-.48.18-.83s.15-.74.22-1.17.13-.87.17-1.32L380,127Z"/><path class="cls-10" d="M387.08,128.35V118.17h1.49v10.18Zm1.37-2.59V124h.26l3-3.23h1.78l-3.47,3.68h-.24Zm3.45,2.59-2.73-3.62,1-1,3.54,4.66Z"/><path class="cls-10" d="M395.62,119.54a.93.93,0,0,1-.66-.26.82.82,0,0,1-.28-.63A.8.8,0,0,1,395,118a.94.94,0,0,1,1.32,0,.8.8,0,0,1,.28.62.82.82,0,0,1-.28.63A.93.93,0,0,1,395.62,119.54Zm-.75,8.81v-7.63h1.49v7.63Z"/><path class="cls-10" d="M401.21,128.5a2.89,2.89,0,0,1-1.64-.47,3.2,3.2,0,0,1-1.14-1.36,5,5,0,0,1-.41-2.12,4.92,4.92,0,0,1,.42-2.12,3.07,3.07,0,0,1,1.14-1.34,2.89,2.89,0,0,1,1.64-.47,2.5,2.5,0,0,1,1.15.23,2.27,2.27,0,0,1,.68.55,4.84,4.84,0,0,1,.37.56h.09v-3.79H405v10.18h-1.45v-1.18h-.13a5.07,5.07,0,0,1-.38.55,2.29,2.29,0,0,1-.69.55A2.36,2.36,0,0,1,401.21,128.5Zm.33-1.26a1.79,1.79,0,0,0,1.09-.34,2.16,2.16,0,0,0,.67-1,3.86,3.86,0,0,0,.24-1.41,4,4,0,0,0-.23-1.4,2.24,2.24,0,0,0-.67-.93,2,2,0,0,0-2.22,0,2.08,2.08,0,0,0-.67,1,3.84,3.84,0,0,0-.23,1.36,3.9,3.9,0,0,0,.23,1.37,2.16,2.16,0,0,0,.68,1A1.72,1.72,0,0,0,401.54,127.24Z"/><path class="cls-10" d="M408.09,128.45a1,1,0,0,1-1-1,.94.94,0,0,1,.29-.69,1,1,0,0,1,1.41,0A1,1,0,0,1,409,128a.89.89,0,0,1-.36.36A.94.94,0,0,1,408.09,128.45Z"/><path class="cls-11" d="M442.72,341.87H415c.05.57.08,1.15.08,1.74,0,8.38-5.15,15.17-11.5,15.17s-11.49-6.79-11.49-15.17c0-.59,0-1.17.08-1.74H381c0,.39.05.78.05,1.17,0,8.38-5,15.17-11.12,15.17-4.26,0-8-3.27-9.83-8.07a11.08,11.08,0,0,0-.35,2.72h0a11,11,0,0,0,11,11h72a11,11,0,0,0,11-11h0A11,11,0,0,0,442.72,341.87Z"/><path class="cls-11" d="M328.39,317H304.66c0,.57.08,1.14.08,1.73,0,8.38-2.24,13.09-8.49,14.17-7.79,1.35-11.5-5.79-11.5-14.17,0-.59,0-1.16.08-1.73H266.69c0,.38,0,.77,0,1.17,0,8.37-5,15.17-11.12,15.17-4.26,0-8-3.28-9.82-8.08a10.64,10.64,0,0,0-.36,2.73h0a11,11,0,0,0,11,11h72a11,11,0,0,0,11-11h0A11,11,0,0,0,328.39,317Z"/></g></g></svg>