<svg id="Layer_1" data-name="Layer 1" xmlns="http://www.w3.org/2000/svg" xmlns:xlink="http://www.w3.org/1999/xlink" viewBox="0 0 151.92 147"><defs><style>.cls-1{fill:#ffde83;}.cls-2,.cls-4{fill:#fff;}.cls-3{fill:#e5e5e5;}.cls-4,.cls-5{stroke:#3a3836;stroke-linecap:round;stroke-linejoin:round;}.cls-5{fill:none;}.cls-6{fill:#ff6c37;}.cls-7,.cls-8{opacity:0.7;}.cls-7{fill:url(#linear-gradient);}.cls-8{fill:url(#linear-gradient-2);}.cls-9{fill:#3a3836;}</style><linearGradient id="linear-gradient" x1="38.72" y1="56.01" x2="47.9" y2="56.01" gradientUnits="userSpaceOnUse"><stop offset="0" stop-color="#ff7002"/><stop offset="0.3" stop-color="#fe7304"/><stop offset="0.5" stop-color="#fc7c0a"/><stop offset="0.68" stop-color="#f88b15"/><stop offset="0.84" stop-color="#f3a125"/><stop offset="0.98" stop-color="#ecbd39"/><stop offset="1" stop-color="#ebc03b"/></linearGradient><linearGradient id="linear-gradient-2" x1="97.72" y1="88.01" x2="106.9" y2="88.01" xlink:href="#linear-gradient"/></defs><circle class="cls-1" cx="73.12" cy="55.96" r="42.82"/><path class="cls-2" d="M57.59,98.65,53.84,94.2,51.06,84.08l1.19-9.37,4.07-7.35,1.23-1.58-3.71-9,.49-7.06,3.8-7.82s5.23-5.69,8.82-6.14,5.36-1.69,12-.32S92.91,46.19,92.4,54l5.91-4.76s6.75-5.5,11.49-.4-3.69,10.65-3.69,10.65L93,71.54l-4.35,8.35,5,24.58s7,26.3,2.59,27l-3.27,2H87.93L85.15,131l-4-10.33-3.79-11.28H72.11s-3.57,4.4,0,14.31c0,0,3.14,8-4.39,9.67s-8.78-5.12-8.78-5.12S50.31,116.67,57.59,98.65Z"/><path class="cls-3" d="M59.15,72.41s9.5,6.76,22.69-1.2c0,0-13.47,5.83-21.22-2.52L59.49,68Z"/><path class="cls-4" d="M54,50.91l-2.16,1A1.46,1.46,0,0,0,51,53.22v2.69a1.42,1.42,0,0,0,1,1.39l2.06.56"/><path class="cls-3" d="M98.22,126.69c5,.46,7.78,2.29,7.78,4.18,0,2.92-12.77,5.28-28.51,5.28S49,133.79,49,130.87c0-1.45,4.42-3.21,9.6-3.91.71-.09,2.39,6,4.36,5.8,1.31-.12,2.63.76,4.75.64,1.15-.07,4.79-1.65,5.33-6.74.12-1.14-.4-.65.91-.68s7.44,0,9,0c.91,0,1.57,6.16,4,6.69a30.07,30.07,0,0,0,5.26.9,8.59,8.59,0,0,0,4.93-3.11c1-1.47.68-3.72.91-3.7C99.59,126.86,96.62,126.55,98.22,126.69Z"/><line class="cls-5" x1="80.75" y1="33.66" x2="80.26" y2="36.13"/><ellipse class="cls-6" cx="81.48" cy="31.1" rx="2.7" ry="2.68" transform="translate(32.87 103.51) rotate(-77.02)"/><ellipse class="cls-5" cx="81.41" cy="30.88" rx="2.7" ry="2.68" transform="translate(33.03 103.27) rotate(-77.02)"/><rect class="cls-5" x="77.53" y="78.05" width="4.93" height="5.07" rx="0.43"/><path class="cls-5" d="M57.55,65.78l-1.86,2.39a23,23,0,0,0,4.41,32.07l1.07.82a6.39,6.39,0,0,0,3.88,1.31h0a6.38,6.38,0,0,0,4.69-10.71c-3-3.29-6-7.62-9.37-10.21"/><circle class="cls-5" cx="73.12" cy="54.01" r="19.28"/><path class="cls-5" d="M57.59,98.65s-7.5,16.42,2.73,32a6.74,6.74,0,0,0,5.64,3h0a6.82,6.82,0,0,0,6.33-9.34c-1.56-4-2.91-11.83-.18-14.85h5.26l1.45,4.32,4.68,13.93c1.35,3.81,3.23,6,6.64,6h1A6.79,6.79,0,0,0,98,126L87.12,71.59l-.65-2.9"/><path class="cls-5" d="M88.92,66.08s1.8,4.57-.25,11.68"/><path class="cls-5" d="M55.18,69.23s-.06,8.66,5.3,12.21c0,0-2.86-8.25-1-13.47"/><polygon class="cls-7" points="44.66 54.66 47.9 56.01 44.66 57.37 43.32 60.61 41.96 57.37 38.72 56.02 41.95 54.66 43.3 51.42 44.66 54.66"/><polygon class="cls-5" points="44.66 54.66 47.9 56.01 44.66 57.37 43.32 60.61 41.96 57.37 38.72 56.02 41.95 54.66 43.3 51.42 44.66 54.66"/><polygon class="cls-8" points="103.66 86.66 106.9 88.01 103.66 89.36 102.32 92.61 100.96 89.37 97.72 88.02 100.95 86.66 102.3 83.42 103.66 86.66"/><polygon class="cls-5" points="103.66 86.66 106.9 88.01 103.66 89.36 102.32 92.61 100.96 89.37 97.72 88.02 100.95 86.66 102.3 83.42 103.66 86.66"/><polygon class="cls-9" points="39.26 93.63 40.26 94.18 39.26 94.74 38.72 95.76 38.17 94.74 37.17 94.18 38.17 93.63 38.72 92.61 39.26 93.63"/><polygon class="cls-9" points="116.48 27.12 117.48 27.68 116.48 28.24 115.94 29.25 115.39 28.24 114.4 27.68 115.39 27.12 115.94 26.1 116.48 27.12"/><path class="cls-5" d="M92.55,53.66c1-.8,3.13-2.64,4.24-3.41,2.42-1.69,9-5.77,11.88-2.74h0c2.52,2.34,3.57,6.6,0,9.69-7.49,6.56-15.2,14.11-15.2,14.11S90,75.12,88.67,78.78"/><path class="cls-5" d="M78.19,72.41c3.25-2.33,5-5.25,5.14-8.49.19-6,0-11-14.65-11.42-10.1-.3-13.15,2-14.33,5.64"/><path class="cls-5" d="M91.53,60.16l2.29-.65a1.47,1.47,0,0,0,1-1.2l.4-2.65a1.44,1.44,0,0,0-.75-1.53l-2-.85"/></svg>