<svg width="560" height="420" viewBox="0 0 560 420" fill="none" xmlns="http://www.w3.org/2000/svg">
<g clip-path="url(#clip0)">
<g style="mix-blend-mode:multiply">
<path d="M238.85 352.6H121.01C113.648 352.6 107.68 358.566 107.68 365.925C107.68 373.284 113.648 379.25 121.01 379.25H238.85C246.212 379.25 252.18 373.284 252.18 365.925C252.18 358.566 246.212 352.6 238.85 352.6Z" fill="#E4E4E4"/>
</g>
<g style="mix-blend-mode:multiply">
<path d="M454.28 352.6H336.44C329.078 352.6 323.11 358.566 323.11 365.925C323.11 373.284 329.078 379.25 336.44 379.25H454.28C461.642 379.25 467.61 373.284 467.61 365.925C467.61 358.566 461.642 352.6 454.28 352.6Z" fill="#E4E4E4"/>
</g>
<path d="M496.03 296.19C496.03 296.19 491.21 265.74 524.87 263.75C524.9 263.75 525.02 287.67 496.03 296.19Z" fill="#A2ECC2"/>
<path d="M489.78 289.82C489.78 289.82 471.15 263.75 488.91 237.68C488.9 237.68 508.84 259.98 489.78 289.82Z" fill="#A2ECC2"/>
<path d="M483.65 295.27C483.65 295.27 460.14 291.61 464.44 259.93C464.44 259.98 489.78 269.56 483.65 295.27Z" fill="#A2ECC2"/>
<path d="M96.29 248.63H39.06V299.85H96.29V248.63Z" fill="#FFDE83"/>
<path d="M206.73 41H102.49V128.16H206.73V41Z" fill="#FFDE83"/>
<path d="M88.42 292.56L88.63 301.42C88.63 301.42 89.31 310.89 102.58 310.96C102.58 310.96 85.98 312.38 91.73 329.96C93.0893 332.065 94.962 333.788 97.1716 334.969C99.3811 336.15 101.855 336.749 104.36 336.71H129.9V360.71C129.9 360.71 134.67 375.24 146.84 374.19C159.01 373.14 163.19 361.69 163.19 361.69L163.78 336.74L173.84 336.31L174 359.58C174 359.58 175.55 373.48 192.21 374.24C192.21 374.24 206.21 374.05 207.72 357.24V292.06C206.176 286.966 202.756 282.648 198.15 279.98C198.15 279.98 198.23 248.46 191.68 238.05L312.33 237.72L317.1 344.98C317.1 344.98 312.68 379.13 340.43 375.57C340.43 375.57 363.1 375.99 360.28 351.14V308.22L369.97 311.06L391.97 361.5C391.97 361.5 395.65 379.57 421.97 372.07C421.97 372.07 439.63 365.07 430.09 345.6L403.32 252.7L407.37 250.83V242.75C407.37 242.75 418.43 257.04 422.12 270.26C422.12 270.26 429.02 286.98 446.12 276.98C446.12 276.98 457.36 268.27 449.85 254.92C449.85 254.92 434.71 214.92 413.85 198.4L415.27 181.17C415.27 181.17 415.79 177.17 407.36 177.27C403.009 177.403 398.656 177.118 394.36 176.42C398.222 168.882 400.121 160.492 399.884 152.026C399.646 143.559 397.279 135.29 393 127.98C378.24 102.59 364.89 104.38 364.89 104.38V72.38H140.34V119.69C140.34 119.69 96.56 110.69 80.13 155.78C80.13 155.78 70.41 190.7 97.87 209.39L96.47 212.76C95.4086 215.329 94.8616 218.081 94.86 220.86L79.54 221.5C79.54 221.5 70.08 219.91 71.59 244.85C73.1 269.79 72.09 285.58 72.09 285.58C72.09 285.58 73.9 293.47 88.42 292.56Z" fill="white"/>
<path d="M219.52 72.39H140.34V147.38H219.52V72.39Z" fill="white"/>
<path d="M320.05 209.57C320.05 209.57 354.47 222.12 379.25 194.99C379.25 194.99 353.54 217.57 321.07 199.2L320.05 209.57Z" fill="#E4E4E4"/>
<path d="M149.64 224.79C149.64 224.79 164.57 218.21 168.45 208.79L164.52 207.79C164.52 207.79 154.9 220.65 137.97 221.28C137.97 221.28 149.51 217.82 152.86 228.62L149.64 224.79Z" fill="#E4E4E4"/>
<path d="M58.4 341.26H130.4" stroke="#3A3836" stroke-width="2"/>
<path d="M294.9 90.9H270.51V102.48H294.9V90.9Z" fill="url(#paint0_linear)"/>
<path d="M162.97 210.8C171.19 204.046 177.141 194.933 180.019 184.691C182.898 174.449 182.565 163.57 179.067 153.523C175.568 143.475 169.072 134.743 160.455 128.504C151.837 122.264 141.514 118.818 130.876 118.63C120.239 118.443 109.8 121.522 100.968 127.454C92.1357 133.385 85.3355 141.883 81.4846 151.8C77.6337 161.718 76.9175 172.578 79.4327 182.915C81.9478 193.253 87.5733 202.57 95.55 209.61L97.86 211.51" stroke="#3A3836" stroke-width="2" stroke-linecap="round" stroke-linejoin="round"/>
<path d="M96.3 121.24C100.37 121.24 103.67 117.94 103.67 113.87C103.67 109.8 100.37 106.5 96.3 106.5C92.2297 106.5 88.93 109.8 88.93 113.87C88.93 117.94 92.2297 121.24 96.3 121.24Z" fill="#FF6C37" fill-opacity="0.8"/>
<path d="M96.3 121.24C100.37 121.24 103.67 117.94 103.67 113.87C103.67 109.8 100.37 106.5 96.3 106.5C92.2297 106.5 88.93 109.8 88.93 113.87C88.93 117.94 92.2297 121.24 96.3 121.24Z" stroke="#3A3836" stroke-width="2" stroke-linecap="round" stroke-linejoin="round"/>
<path d="M178.58 186.57C161.93 184.57 150.47 170.57 150.47 153.37C150.47 143.31 154.1 135.04 161.12 128.9" stroke="#3A3836" stroke-width="2" stroke-linecap="round" stroke-linejoin="round"/>
<path d="M178.08 250.41C178.08 250.41 173.44 273.85 154.37 271.62" stroke="#3A3836" stroke-width="2" stroke-linecap="round" stroke-linejoin="round"/>
<path d="M178.6 270.53C178.6 270.53 172.41 286.21 154.37 285.87" stroke="#3A3836" stroke-width="2" stroke-linecap="round" stroke-linejoin="round"/>
<path d="M100.42 120.01L103.84 125.7" stroke="#3A3836" stroke-width="2" stroke-linecap="round" stroke-linejoin="round"/>
<path d="M132.11 187.26C136.401 187.26 139.88 183.781 139.88 179.49C139.88 175.199 136.401 171.72 132.11 171.72C127.819 171.72 124.34 175.199 124.34 179.49C124.34 183.781 127.819 187.26 132.11 187.26Z" stroke="#3A3836" stroke-width="2" stroke-linecap="round" stroke-linejoin="round"/>
<path d="M143.15 221.28H81.69C76.1175 221.28 71.6 225.797 71.6 231.37V282.47C71.6 288.043 76.1175 292.56 81.69 292.56H143.15C148.723 292.56 153.24 288.043 153.24 282.47V231.37C153.24 225.797 148.723 221.28 143.15 221.28Z" stroke="#3A3836" stroke-width="2" stroke-linecap="round" stroke-linejoin="round"/>
<path d="M144.63 220.8C144.63 220.8 157.79 216.04 164.57 209.4" stroke="#3A3836" stroke-width="2" stroke-linecap="round" stroke-linejoin="round"/>
<path d="M115.07 249.25H152.18" stroke="#3A3836" stroke-width="2" stroke-linecap="round" stroke-linejoin="round"/>
<path d="M72.1 249.25H100.5" stroke="#3A3836" stroke-width="2" stroke-linecap="round" stroke-linejoin="round"/>
<path d="M113.69 242.31H102.52C101.868 242.31 101.34 242.838 101.34 243.49V255.05C101.34 255.702 101.868 256.23 102.52 256.23H113.69C114.342 256.23 114.87 255.702 114.87 255.05V243.49C114.87 242.838 114.342 242.31 113.69 242.31Z" fill="url(#paint1_linear)"/>
<path d="M113.69 242.31H102.52C101.868 242.31 101.34 242.838 101.34 243.49V255.05C101.34 255.702 101.868 256.23 102.52 256.23H113.69C114.342 256.23 114.87 255.702 114.87 255.05V243.49C114.87 242.838 114.342 242.31 113.69 242.31Z" stroke="#3A3836" stroke-width="2" stroke-linecap="round" stroke-linejoin="round"/>
<path d="M94.9 220.87C94.9 218.637 95.7871 216.495 97.3662 214.916C98.9452 213.337 101.087 212.45 103.32 212.45H120.19C122.423 212.45 124.565 213.337 126.144 214.916C127.723 216.495 128.61 218.637 128.61 220.87" stroke="#3A3836" stroke-width="2" stroke-linecap="round" stroke-linejoin="round"/>
<path d="M161.78 311.09H106.23C96.39 311.09 88.42 308.61 88.42 298.77V293.84" stroke="#3A3836" stroke-width="2" stroke-linecap="round" stroke-linejoin="round"/>
<path d="M169.63 311.03H103.05C95.9531 311.03 90.2 316.781 90.2 323.875C90.2 330.969 95.9531 336.72 103.05 336.72H169.63C176.727 336.72 182.48 330.969 182.48 323.875C182.48 316.781 176.727 311.03 169.63 311.03Z" stroke="#3A3836" stroke-width="2" stroke-linecap="round" stroke-linejoin="round"/>
<path d="M173.84 336.29V357.23C173.84 361.723 175.625 366.032 178.802 369.208C181.978 372.385 186.287 374.17 190.78 374.17C193.005 374.17 195.207 373.732 197.263 372.88C199.318 372.029 201.185 370.781 202.758 369.208C204.331 367.635 205.579 365.768 206.431 363.713C207.282 361.657 207.72 359.455 207.72 357.23V295.84C207.72 282.89 197.23 277.89 184.29 277.89L179.1 277.71L178.1 250.41" stroke="#3A3836" stroke-width="2" stroke-linecap="round" stroke-linejoin="round"/>
<path d="M163.78 337.03V357.23C163.78 361.723 161.995 366.032 158.818 369.208C155.642 372.385 151.333 374.17 146.84 374.17V374.17C142.347 374.17 138.038 372.385 134.862 369.208C131.685 366.032 129.9 361.723 129.9 357.23L130.35 337.42" stroke="#3A3836" stroke-width="2" stroke-linecap="round" stroke-linejoin="round"/>
<path d="M310.96 238.01H191.68" stroke="#3A3836" stroke-width="2" stroke-linecap="round" stroke-linejoin="round"/>
<path d="M140.34 119.2V72.39H364.89V104.4" stroke="#3A3836" stroke-width="2" stroke-linecap="round" stroke-linejoin="round"/>
<path d="M165.9 208.4C165.9 208.4 194.52 207.99 198.2 279.94" stroke="#3A3836" stroke-width="2" stroke-linecap="round" stroke-linejoin="round"/>
<path d="M269.51 90.9H293.9V102.48H269.51" stroke="#3A3836" stroke-width="2" stroke-linecap="round" stroke-linejoin="round"/>
<path d="M269.92 90.9H189.17V102.48H269.92V90.9Z" stroke="#3A3836" stroke-width="2" stroke-linecap="round" stroke-linejoin="round"/>
<path d="M157.57 100.92C161 100.92 163.78 98.1397 163.78 94.71C163.78 91.2803 161 88.5 157.57 88.5C154.14 88.5 151.36 91.2803 151.36 94.71C151.36 98.1397 154.14 100.92 157.57 100.92Z" fill="#FF8753" stroke="#3A3836" stroke-width="2" stroke-miterlimit="10"/>
<path d="M156.97 117.39C158.958 117.39 160.57 115.778 160.57 113.79C160.57 111.802 158.958 110.19 156.97 110.19C154.982 110.19 153.37 111.802 153.37 113.79C153.37 115.778 154.982 117.39 156.97 117.39Z" stroke="#3A3836" stroke-width="2" stroke-linecap="round" stroke-linejoin="round"/>
<path d="M357.9 205.11C381.13 200.11 399.75 178.61 399.75 153.85C399.186 140.183 393.361 127.263 383.492 117.793C373.622 108.322 360.473 103.034 346.795 103.034C333.117 103.034 319.968 108.322 310.098 117.793C300.229 127.263 294.404 140.183 293.84 153.85C293.84 177.18 310.73 197.18 331.76 204.18C331.78 204.18 342.06 208.5 357.9 205.11Z" stroke="#3A3836" stroke-width="2" stroke-linecap="round" stroke-linejoin="round"/>
<path d="M360.28 308.98L359.81 359.38C358.73 370.02 349.75 375.59 339.03 375.59C328.17 375.59 319.13 369.84 318.22 359.04C315.57 327.59 311.01 260.2 312.33 194.04" stroke="#3A3836" stroke-width="2" stroke-linecap="round" stroke-linejoin="round"/>
<path d="M396.1 229.06L409.84 275.52L431.84 351.73C434.79 364.54 425.03 374.23 411.84 374.23H410.34C406.097 374.232 401.958 372.917 398.494 370.466C395.03 368.016 392.412 364.551 391 360.55L369.65 311.55L356.44 306.84" stroke="#3A3836" stroke-width="2" stroke-linecap="round" stroke-linejoin="round"/>
<path d="M321.07 199.2C320.52 199.37 320.45 224.96 312.33 237.68" stroke="#3A3836" stroke-width="2" stroke-linecap="round" stroke-linejoin="round"/>
<path d="M398.35 186.1C398.35 186.1 386.35 206.36 396.35 229.19" stroke="#3A3836" stroke-width="2" stroke-linecap="round" stroke-linejoin="round"/>
<path d="M383.03 191.98C381.91 197.39 378.11 227.31 397.77 236.57" stroke="#3A3836" stroke-width="2" stroke-linecap="round" stroke-linejoin="round"/>
<path d="M415.12 195.98L415.88 183.98C415.877 182.283 415.202 180.657 414.003 179.457C412.803 178.258 411.177 177.583 409.48 177.58L394.42 177.32" stroke="#3A3836" stroke-width="2" stroke-linecap="round" stroke-linejoin="round"/>
<path d="M377.66 163.71C382.034 163.71 385.58 160.164 385.58 155.79C385.58 151.416 382.034 147.87 377.66 147.87C373.286 147.87 369.74 151.416 369.74 155.79C369.74 160.164 373.286 163.71 377.66 163.71Z" stroke="#3A3836" stroke-width="2" stroke-linecap="round" stroke-linejoin="round"/>
<path d="M299.22 132.5C304.42 131.21 310.38 130.59 322.46 131.5C343.46 133.01 352.16 141.3 355.63 146.8C357.3 149.44 357.49 154.73 357.07 157.8C355.63 168.42 352.39 194.41 307.6 188.05" stroke="#3A3836" stroke-width="2" stroke-linecap="round" stroke-linejoin="round"/>
<path d="M347.69 93.87L347.5 102" stroke="#3A3836" stroke-width="2" stroke-linecap="round" stroke-linejoin="round"/>
<path d="M347.65 93.41C351.72 93.41 355.02 90.0969 355.02 86.01C355.02 81.9231 351.72 78.61 347.65 78.61C343.58 78.61 340.28 81.9231 340.28 86.01C340.28 90.0969 343.58 93.41 347.65 93.41Z" fill="#FF6C37" fill-opacity="0.8"/>
<path d="M347.65 93.41C351.72 93.41 355.02 90.0969 355.02 86.01C355.02 81.9231 351.72 78.61 347.65 78.61C343.58 78.61 340.28 81.9231 340.28 86.01C340.28 90.0969 343.58 93.41 347.65 93.41Z" stroke="#3A3836" stroke-width="2" stroke-linecap="round" stroke-linejoin="round"/>
<path d="M393 181.91C393 181.91 431.71 199.91 451.51 259.91C452.166 262.006 452.374 264.216 452.123 266.398C451.871 268.579 451.164 270.684 450.049 272.575C448.933 274.467 447.432 276.103 445.645 277.379C443.857 278.654 441.822 279.54 439.67 279.98V279.98C432.11 281.58 425.29 278.55 422.49 271.35C418.27 260.47 409.01 239.98 396.71 229.35" stroke="#3A3836" stroke-width="2" stroke-linecap="round" stroke-linejoin="round"/>
<path d="M360.03 230.91H371.2C371.852 230.91 372.38 230.382 372.38 229.73V218.17C372.38 217.518 371.852 216.99 371.2 216.99H360.03C359.378 216.99 358.85 217.518 358.85 218.17V229.73C358.85 230.382 359.378 230.91 360.03 230.91Z" stroke="#3A3836" stroke-width="2" stroke-linecap="round" stroke-linejoin="round"/>
<path d="M407.34 242.75V248.65C407.347 249.184 407.247 249.713 407.045 250.208C406.844 250.702 406.546 251.151 406.169 251.529C405.791 251.906 405.342 252.204 404.848 252.405C404.353 252.607 403.824 252.707 403.29 252.7V252.7" stroke="#3A3836" stroke-width="2" stroke-linecap="round" stroke-linejoin="round"/>
<path d="M308.47 188.03C295.341 182.424 284.055 173.237 275.9 161.52C274.542 159.571 272.804 157.915 270.792 156.653C268.779 155.391 266.532 154.548 264.186 154.175C261.84 153.801 259.442 153.905 257.137 154.48C254.832 155.055 252.666 156.089 250.77 157.52V157.52C247.588 159.887 245.334 163.291 244.397 167.144C243.46 170.997 243.9 175.057 245.64 178.62C252.26 191.89 268.73 217.62 296.53 230.01C297.32 230.37 298.12 230.69 298.93 231.01C301.612 231.964 304.359 232.726 307.15 233.29L311.71 234.29" stroke="#3A3836" stroke-width="2" stroke-linecap="round" stroke-linejoin="round"/>
<path d="M175.54 73.9V145.68" stroke="#3A3836" stroke-width="2" stroke-linecap="round" stroke-linejoin="round"/>
<path d="M189.57 195.83H239.72" stroke="#3A3836" stroke-width="2" stroke-linecap="round" stroke-linejoin="round"/>
<path d="M189.57 209.56H239.72" stroke="#3A3836" stroke-width="2" stroke-linecap="round" stroke-linejoin="round"/>
<path d="M268.73 119.2H189.17V125.7H268.73V119.2Z" fill="#D1DAFA" stroke="#3A3836" stroke-width="2" stroke-linecap="round" stroke-linejoin="round"/>
<path d="M268.73 134.2H189.17V140.7H268.73V134.2Z" fill="#D1DAFA" stroke="#3A3836" stroke-width="2" stroke-linecap="round" stroke-linejoin="round"/>
<path d="M207.72 338.29H316.7" stroke="#3A3836" stroke-width="2"/>
<path d="M51.28 341.26H35.64" stroke="#3A3836" stroke-width="2"/>
<path d="M426.38 334.86H471.94" stroke="#3A3836" stroke-width="2"/>
<path d="M473.12 113.87H415.89V165.09H473.12V113.87Z" fill="#FFDE83"/>
<path d="M49.8 184.98L56.8 187.26L49.8 189.55L47.51 196.55L45.23 189.55L38.23 187.26L45.23 184.98L47.51 177.98L49.8 184.98Z" fill="white" stroke="#3A3836" stroke-width="2" stroke-miterlimit="10"/>
<path d="M418.17 68.34L425.17 70.62L418.17 72.91L415.88 79.91L413.6 72.91L406.6 70.62L413.6 68.34L415.88 61.34L418.17 68.34Z" fill="white" stroke="#3A3836" stroke-width="2" stroke-miterlimit="10"/>
<path d="M478.43 222.32L483.43 223.95L478.43 225.58L476.8 230.58L475.17 225.58L470.17 223.95L475.17 222.32L476.8 217.32L478.43 222.32Z" fill="#3A3836"/>
<path d="M312.59 238.13H192.16V243.42H312.59V238.13Z" fill="#3A3836"/>
<path d="M371 108L365 107.016V82H371V108Z" fill="#3A3836"/>
<path d="M506.45 306.26H473.12V369.3H506.45V306.26Z" stroke="#3A3836" stroke-width="2"/>
<path d="M489.98 306.26V260.83" stroke="#3A3836" stroke-width="2"/>
<path d="M494.58 306.26C494.58 306.26 495.93 284.37 511.33 275.77" stroke="#3A3836" stroke-width="2"/>
<path d="M485.41 306.26C485.41 306.26 485.41 289.82 474.17 278.26" stroke="#3A3836" stroke-width="2"/>
<path d="M473.12 353.84H506.45" stroke="#3A3836" stroke-width="2"/>
</g>
<defs>
<linearGradient id="paint0_linear" x1="270.51" y1="96.69" x2="294.9" y2="96.69" gradientUnits="userSpaceOnUse">
<stop stop-color="#FF6D37"/>
<stop offset="0.54" stop-color="#FA9139"/>
<stop offset="1" stop-color="#F7AC3B"/>
</linearGradient>
<linearGradient id="paint1_linear" x1="998.921" y1="3141.43" x2="1182.12" y2="3141.43" gradientUnits="userSpaceOnUse">
<stop stop-color="#FF6D37"/>
<stop offset="0.54" stop-color="#FA9139"/>
<stop offset="1" stop-color="#F7AC3B"/>
</linearGradient>
<clipPath id="clip0">
<rect width="489.87" height="338.26" fill="white" transform="translate(35 41)"/>
</clipPath>
</defs>
</svg>